<?xml version="1.0" encoding="utf-8"?>
<!DOCTYPE svg PUBLIC "-//W3C//DTD SVG 1.1//EN" "http://www.w3.org/Graphics/SVG/1.1/DTD/svg11.dtd">
<svg version="1.1" xmlns="http://www.w3.org/2000/svg" xmlns:xlink="http://www.w3.org/1999/xlink" x="0px" y="0px" width="24.865625em" height="33.12875em" viewBox="0 0 198.925 265.03" enable-background="new 0 0 198.925 265.03" xml:space="preserve">


<g id="fig001-Layer_1">
			<g>
				<g>
					
						<rect x="44.432" y="0.25" fill="none" stroke="#000000" stroke-width="0.5" stroke-linecap="round" stroke-linejoin="round" stroke-miterlimit="10" width="110.174" height="22.035" />
					
						<line fill="none" stroke="#000000" stroke-width="0.5" stroke-linecap="round" stroke-linejoin="round" stroke-miterlimit="10" x1="99.462" y1="22.285" x2="99.462" y2="59.461" />
					<polyline fill-rule="evenodd" clip-rule="evenodd" points="102.061,58.784 99.462,66.354 96.977,58.784 102.061,58.784             " />
					
						<line fill="none" stroke="#000000" stroke-width="0.5" stroke-linecap="round" stroke-linejoin="round" stroke-miterlimit="10" x1="44.432" y1="66.354" x2="154.606" y2="66.354" />
					
						<line fill="none" stroke="#000000" stroke-width="0.5" stroke-linecap="round" stroke-linejoin="round" stroke-miterlimit="10" x1="44.432" y1="66.354" x2="44.432" y2="125.565" />
					<polyline fill-rule="evenodd" clip-rule="evenodd" points="46.918,124.888 44.432,132.458 41.833,124.888 46.918,124.888             " />
					
						<line fill="none" stroke="#000000" stroke-width="0.5" stroke-linecap="round" stroke-linejoin="round" stroke-miterlimit="10" x1="154.606" y1="66.354" x2="154.606" y2="81.496" />
					<polyline fill-rule="evenodd" clip-rule="evenodd" points="157.091,80.818 154.606,88.389 152.12,80.818 157.091,80.818             " />
					
						<rect x="0.25" y="132.458" fill="none" stroke="#000000" stroke-width="0.5" stroke-linecap="round" stroke-linejoin="round" stroke-miterlimit="10" width="88.252" height="22.035" />
					
						<rect x="110.536" y="88.389" fill="none" stroke="#000000" stroke-width="0.5" stroke-linecap="round" stroke-linejoin="round" stroke-miterlimit="10" width="88.14" height="22.034" />
					
						<line fill="none" stroke="#000000" stroke-width="0.5" stroke-linecap="round" stroke-linejoin="round" stroke-miterlimit="10" x1="154.606" y1="110.423" x2="154.606" y2="125.565" />
					<polyline fill-rule="evenodd" clip-rule="evenodd" points="157.091,124.888 154.606,132.458 152.12,124.888 157.091,124.888             " />
					
						<rect x="110.536" y="132.458" fill="none" stroke="#000000" stroke-width="0.5" stroke-linecap="round" stroke-linejoin="round" stroke-miterlimit="10" width="88.14" height="22.035" />
					
						<line fill="none" stroke="#000000" stroke-width="0.5" stroke-linecap="round" stroke-linejoin="round" stroke-miterlimit="10" x1="154.606" y1="154.493" x2="154.606" y2="169.635" />
					<polyline fill-rule="evenodd" clip-rule="evenodd" points="157.091,169.07 154.606,176.641 152.12,169.07 157.091,169.07             " />
					
						<rect x="110.536" y="176.641" fill="none" stroke="#000000" stroke-width="0.5" stroke-linecap="round" stroke-linejoin="round" stroke-miterlimit="10" width="88.14" height="22.035" />
					
						<line fill="none" stroke="#000000" stroke-width="0.5" stroke-linecap="round" stroke-linejoin="round" stroke-miterlimit="10" x1="44.432" y1="154.493" x2="44.432" y2="169.635" />
					<polyline fill-rule="evenodd" clip-rule="evenodd" points="46.918,169.07 44.432,176.641 41.833,169.07 46.918,169.07      " />
					
						<rect x="0.25" y="176.641" fill="none" stroke="#000000" stroke-width="0.5" stroke-linecap="round" stroke-linejoin="round" stroke-miterlimit="10" width="88.252" height="22.035" />
					
						<line fill="none" stroke="#000000" stroke-width="0.5" stroke-linecap="round" stroke-linejoin="round" stroke-miterlimit="10" x1="44.432" y1="198.675" x2="44.432" y2="213.704" />
					<polyline fill-rule="evenodd" clip-rule="evenodd" points="46.918,213.139 44.432,220.71 41.833,213.139 46.918,213.139             " />
					
						<line fill="none" stroke="#000000" stroke-width="0.5" stroke-linecap="round" stroke-linejoin="round" stroke-miterlimit="10" x1="154.606" y1="198.675" x2="154.606" y2="213.704" />
					<polyline fill-rule="evenodd" clip-rule="evenodd" points="157.091,213.139 154.606,220.71 152.12,213.139 157.091,213.139             " />
					
						<line fill="none" stroke="#000000" stroke-width="0.5" stroke-linecap="round" stroke-linejoin="round" stroke-miterlimit="10" x1="44.432" y1="220.71" x2="154.606" y2="220.71" />
					
						<line fill="none" stroke="#000000" stroke-width="0.5" stroke-linecap="round" stroke-linejoin="round" stroke-miterlimit="10" x1="99.462" y1="220.71" x2="99.462" y2="235.852" />
					<polyline fill-rule="evenodd" clip-rule="evenodd" points="102.061,235.174 99.462,242.745 96.977,235.174 102.061,235.174             " />
					
						<rect x="44.432" y="242.745" fill="none" stroke="#000000" stroke-width="0.5" stroke-linecap="round" stroke-linejoin="round" stroke-miterlimit="10" width="110.174" height="22.035" />
				</g>
			</g>
		</g><g id="fig001-retype">
			<g>
				<path d="M66.031,11.25c0,1.727-1.208,2.783-2.671,2.783c-1.447,0-2.599-1.12-2.599-2.663c0-1.439,1.008-2.774,2.695-2.774      C64.807,8.595,66.031,9.643,66.031,11.25z M61.577,11.146c0,1.503,0.823,2.599,1.951,2.599c0.896,0,1.687-0.744,1.687-2.279      c0-1.687-0.879-2.583-1.935-2.583C62.393,8.883,61.577,9.643,61.577,11.146z" />
				<path d="M67.849,11.178c0.24-0.408,0.583-0.855,0.967-0.855c0.272,0,0.464,0.216,0.464,0.399c0,0.16-0.104,0.32-0.256,0.392      c-0.096,0.04-0.16,0.032-0.208-0.016c-0.12-0.112-0.216-0.16-0.344-0.16c-0.208,0-0.464,0.231-0.64,0.679v1.463      c0,0.528,0.04,0.576,0.656,0.624v0.208h-1.839v-0.208c0.496-0.048,0.552-0.096,0.552-0.624v-1.655      c0-0.527-0.032-0.56-0.496-0.615v-0.184c0.392-0.064,0.744-0.16,1.127-0.32v0.872H67.849z" />
				<path d="M69.657,13.912v-0.208c0.504-0.048,0.56-0.096,0.56-0.64v-1.647c0-0.496-0.024-0.536-0.503-0.607v-0.192      c0.408-0.063,0.792-0.167,1.135-0.312v2.758c0,0.544,0.056,0.592,0.568,0.64v0.208H69.657z M70.081,9.219      c0-0.24,0.192-0.416,0.408-0.416c0.224,0,0.4,0.176,0.4,0.416c0,0.216-0.176,0.408-0.408,0.408      C70.273,9.626,70.081,9.435,70.081,9.219z" />
				<path d="M75.288,10.482c-0.072,0.128-0.232,0.336-0.36,0.408l-0.456-0.024c0.144,0.168,0.24,0.424,0.24,0.704      c0,0.864-0.719,1.279-1.399,1.279c-0.128,0-0.28-0.016-0.408-0.04c-0.104,0.072-0.24,0.224-0.24,0.336      c0,0.152,0.144,0.304,0.504,0.304c0.296,0,0.576-0.008,0.848-0.008c0.496,0,1.144,0.16,1.144,0.943      c0,0.808-0.928,1.583-1.991,1.583c-0.896,0-1.383-0.52-1.391-0.975c0-0.176,0.072-0.328,0.192-0.448      c0.16-0.16,0.472-0.408,0.664-0.56c-0.288-0.088-0.488-0.271-0.592-0.439c-0.072-0.112-0.096-0.256-0.088-0.336      c0.32-0.12,0.576-0.328,0.704-0.488c-0.36-0.152-0.704-0.528-0.704-1.071c0-0.904,0.815-1.327,1.431-1.327h0.008      c0.264,0,0.527,0.072,0.768,0.216c0.384-0.024,0.792-0.072,1.087-0.12L75.288,10.482z M72.777,14.168      c-0.208,0.176-0.368,0.4-0.368,0.624c0,0.44,0.464,0.768,1.056,0.768c0.76,0,1.151-0.392,1.151-0.887      c0-0.272-0.136-0.472-0.36-0.568c-0.2-0.08-0.432-0.104-0.784-0.104C73.104,14,72.92,14.048,72.777,14.168z M72.641,11.521      c0,0.624,0.312,1.071,0.752,1.071c0.352-0.008,0.664-0.32,0.664-0.952c0-0.624-0.296-1.071-0.76-1.071      C72.96,10.57,72.641,10.906,72.641,11.521z" />
				<path d="M75.585,13.912v-0.208c0.504-0.048,0.56-0.096,0.56-0.64v-1.647c0-0.496-0.024-0.536-0.503-0.607v-0.192      c0.408-0.063,0.792-0.167,1.135-0.312v2.758c0,0.544,0.056,0.592,0.567,0.64v0.208H75.585z M76.009,9.219      c0-0.24,0.192-0.416,0.408-0.416c0.224,0,0.4,0.176,0.4,0.416c0,0.216-0.176,0.408-0.408,0.408      C76.201,9.626,76.009,9.435,76.009,9.219z" />
				<path d="M79.992,13.912v-0.208c0.472-0.048,0.528-0.112,0.528-0.664v-1.335c0-0.552-0.192-0.912-0.728-0.912      c-0.32,0-0.632,0.2-0.872,0.408v1.879c0,0.544,0.048,0.576,0.52,0.624v0.208h-1.735v-0.208c0.543-0.056,0.583-0.096,0.583-0.624      v-1.647c0-0.512-0.048-0.544-0.479-0.624v-0.184c0.384-0.072,0.759-0.168,1.111-0.32v0.632c0.16-0.12,0.336-0.24,0.536-0.376      c0.224-0.144,0.432-0.24,0.664-0.24c0.64,0,1.032,0.448,1.032,1.215v1.543c0,0.544,0.048,0.576,0.512,0.624v0.208H79.992z" />
				<path d="M84.608,14.008c-0.12,0-0.288-0.072-0.375-0.16c-0.104-0.104-0.152-0.216-0.192-0.352      c-0.32,0.216-0.704,0.512-0.943,0.512c-0.568,0-0.959-0.472-0.959-0.976c0-0.392,0.208-0.64,0.647-0.792      c0.48-0.16,1.063-0.376,1.239-0.52v-0.136c0-0.584-0.272-0.903-0.68-0.903c-0.152,0-0.272,0.056-0.36,0.152      c-0.096,0.112-0.168,0.288-0.231,0.527c-0.04,0.128-0.12,0.184-0.232,0.184c-0.144,0-0.344-0.152-0.344-0.344      c0-0.112,0.096-0.208,0.248-0.32c0.216-0.16,0.744-0.464,1.199-0.56c0.24,0,0.48,0.072,0.656,0.216      c0.28,0.24,0.36,0.56,0.36,0.983V13c0,0.36,0.144,0.48,0.28,0.48c0.096,0,0.208-0.04,0.288-0.088l0.08,0.208L84.608,14.008z       M84.024,11.993c-0.168,0.088-0.552,0.256-0.72,0.336c-0.312,0.144-0.488,0.296-0.488,0.591c0,0.408,0.32,0.608,0.568,0.608      c0.208,0,0.488-0.136,0.64-0.288V11.993z" />
				<path d="M85.498,13.912v-0.208c0.503-0.048,0.576-0.096,0.576-0.624V9.299c0-0.544-0.048-0.56-0.552-0.608V8.499      c0.416-0.048,0.911-0.184,1.183-0.28v4.861c0,0.528,0.064,0.576,0.576,0.624v0.208H85.498z" />
				<path d="M91.057,13.904c-0.136,0.072-0.256,0.104-0.335,0.104c-0.504,0-0.784-0.32-0.784-0.952v-2.319h-0.552l-0.032-0.088      l0.224-0.232h0.36V9.842l0.52-0.536l0.112,0.016v1.095h0.904c0.08,0.088,0.056,0.256-0.048,0.32h-0.855v2.047      c0,0.647,0.264,0.768,0.472,0.768c0.2,0,0.384-0.08,0.488-0.136l0.072,0.208L91.057,13.904z" />
				<path d="M93.161,11.178c0.24-0.408,0.583-0.855,0.967-0.855c0.272,0,0.464,0.216,0.464,0.399c0,0.16-0.104,0.32-0.256,0.392      c-0.096,0.04-0.16,0.032-0.208-0.016c-0.12-0.112-0.216-0.16-0.344-0.16c-0.208,0-0.464,0.231-0.64,0.679v1.463      c0,0.528,0.04,0.576,0.656,0.624v0.208h-1.839v-0.208c0.496-0.048,0.552-0.096,0.552-0.624v-1.655      c0-0.527-0.032-0.56-0.496-0.615v-0.184c0.392-0.064,0.744-0.16,1.127-0.32v0.872H93.161z" />
				<path d="M97.448,14.008c-0.12,0-0.288-0.072-0.375-0.16c-0.104-0.104-0.152-0.216-0.192-0.352      c-0.32,0.216-0.704,0.512-0.943,0.512c-0.568,0-0.959-0.472-0.959-0.976c0-0.392,0.208-0.64,0.647-0.792      c0.48-0.16,1.063-0.376,1.239-0.52v-0.136c0-0.584-0.272-0.903-0.68-0.903c-0.152,0-0.272,0.056-0.36,0.152      c-0.096,0.112-0.168,0.288-0.231,0.527c-0.04,0.128-0.12,0.184-0.232,0.184c-0.144,0-0.344-0.152-0.344-0.344      c0-0.112,0.096-0.208,0.248-0.32c0.216-0.16,0.744-0.464,1.199-0.56c0.24,0,0.48,0.072,0.656,0.216      c0.28,0.24,0.36,0.56,0.36,0.983V13c0,0.36,0.144,0.48,0.279,0.48c0.097,0,0.209-0.04,0.289-0.088l0.079,0.208L97.448,14.008z       M96.864,11.993c-0.168,0.088-0.552,0.256-0.72,0.336c-0.312,0.144-0.488,0.296-0.488,0.591c0,0.408,0.32,0.608,0.568,0.608      c0.208,0,0.488-0.136,0.64-0.288V11.993z" />
				<path d="M102.664,13.912v-0.208c0.439-0.048,0.503-0.088,0.503-0.591v-1.959c0-0.36-0.016-0.416-0.407-0.416h-1.096v2.375      c0,0.496,0.048,0.543,0.535,0.591v0.208h-1.679v-0.208c0.464-0.048,0.512-0.088,0.512-0.591v-2.375h-1.503v2.343      c0,0.528,0.048,0.576,0.535,0.632v0.2h-1.695v-0.208c0.473-0.048,0.528-0.08,0.528-0.624v-2.343h-0.56l-0.023-0.088l0.207-0.232      h0.376v-0.16c0-0.176,0.032-0.384,0.088-0.576c0.072-0.224,0.248-0.584,0.68-0.912c0.288-0.216,0.6-0.36,0.991-0.4      c0.496,0.016,0.8,0.216,0.936,0.424c0.376-0.36,0.832-0.56,1.184-0.583c0.496,0.008,0.76,0.256,0.863,0.384      c0.072,0.104,0.08,0.2,0.04,0.28c-0.032,0.072-0.104,0.16-0.176,0.208c-0.096,0.056-0.176,0.064-0.264-0.024      c-0.168-0.192-0.392-0.472-0.792-0.472c-0.248,0-0.399,0.104-0.535,0.288c-0.16,0.216-0.248,0.647-0.248,1.223v0.32h0.64      c0.632,0,1.071-0.016,1.495-0.104v2.799c0,0.496,0.04,0.543,0.552,0.591v0.208H102.664z M101.032,10.21      c0-0.208,0.032-0.416,0.072-0.576c0.032-0.112,0.079-0.264,0.168-0.416c-0.16-0.248-0.464-0.512-0.888-0.512      c-0.328,0-0.504,0.168-0.615,0.352c-0.129,0.192-0.24,0.576-0.24,1.144v0.216h1.503V10.21z" />
				<path d="M107.744,13.192c-0.352,0.464-0.88,0.816-1.352,0.816c-1.008,0-1.607-0.816-1.607-1.671      c0-0.616,0.272-1.151,0.809-1.559c0.415-0.32,0.895-0.456,1.191-0.456h0.008c0.327,0,0.592,0.104,0.719,0.216      c0.104,0.088,0.129,0.152,0.129,0.24c0,0.168-0.177,0.344-0.265,0.344c-0.048,0-0.088-0.024-0.151-0.088      c-0.24-0.224-0.52-0.328-0.809-0.328c-0.527,0-0.982,0.439-0.982,1.279c0,1.111,0.751,1.479,1.207,1.479      c0.344,0,0.6-0.096,0.967-0.44L107.744,13.192z" />
				<path d="M112.112,13.912v-0.208c0.464-0.04,0.52-0.096,0.52-0.591V8.939c-0.136-0.208-0.432-0.36-0.712-0.36      c-0.248,0-0.424,0.12-0.543,0.288c-0.137,0.176-0.248,0.528-0.248,1.136v0.416h0.928c0.047,0.072,0.016,0.264-0.072,0.32h-0.855      v2.375c0,0.496,0.048,0.543,0.535,0.591v0.208h-1.727v-0.208c0.504-0.056,0.56-0.096,0.56-0.591v-2.375h-0.56l-0.032-0.088      l0.216-0.232h0.376v-0.136c0-0.32,0.04-0.536,0.104-0.72c0.055-0.2,0.199-0.568,0.646-0.927      c0.305-0.248,0.608-0.376,0.936-0.416c0.24,0,0.496,0.08,0.656,0.184c0.128-0.032,0.24-0.104,0.359-0.168l0.064,0.04v4.837      c0,0.496,0.064,0.543,0.576,0.591v0.208H112.112z" />
				<path d="M117.735,12.105c0,1.288-0.943,1.903-1.735,1.903c-1.095,0-1.75-0.88-1.75-1.767c0-1.319,1.023-1.919,1.758-1.919      C117,10.322,117.735,11.122,117.735,12.105z M114.993,11.985c0,1.007,0.432,1.759,1.095,1.759c0.496,0,0.904-0.368,0.904-1.463      c0-0.927-0.376-1.695-1.088-1.695C115.424,10.586,114.993,11.082,114.993,11.985z" />
				<path d="M123.47,10.626c-0.4,0.056-0.472,0.152-0.632,0.592c-0.239,0.64-0.6,1.703-0.96,2.782h-0.231      c-0.319-0.863-0.647-1.647-0.976-2.487c-0.304,0.808-0.631,1.6-0.951,2.487h-0.224c-0.296-0.952-0.592-1.895-0.928-2.854      c-0.144-0.416-0.208-0.472-0.592-0.52v-0.208h1.655v0.208c-0.479,0.072-0.52,0.12-0.408,0.488      c0.192,0.607,0.393,1.239,0.592,1.855h0.016c0.297-0.768,0.592-1.583,0.928-2.511h0.209c0.295,0.832,0.623,1.679,0.959,2.542      h0.016c0.176-0.552,0.4-1.255,0.552-1.847c0.104-0.416,0.048-0.456-0.464-0.528v-0.208h1.439V10.626z" />
				<path d="M129.335,13.704c-0.176,0.032-0.776,0.136-1.24,0.304v-0.52l-0.487,0.288c-0.319,0.184-0.536,0.232-0.624,0.232      c-0.639,0-1.479-0.584-1.479-1.703c0-1.111,0.967-1.983,2.055-1.983c0.111,0,0.352,0.024,0.535,0.096V9.275      c0-0.52-0.039-0.544-0.615-0.584v-0.2c0.416-0.048,0.951-0.176,1.247-0.272v4.773c0,0.416,0.056,0.456,0.353,0.488l0.256,0.024      V13.704z M128.095,11.034c-0.191-0.28-0.527-0.408-0.823-0.408c-0.376,0-1.048,0.304-1.048,1.463      c0,0.951,0.584,1.415,1.104,1.415c0.28,0,0.576-0.128,0.768-0.272V11.034z" />
				<path d="M132.232,14.008c-0.12,0-0.288-0.072-0.376-0.16c-0.104-0.104-0.151-0.216-0.192-0.352      c-0.319,0.216-0.703,0.512-0.943,0.512c-0.567,0-0.959-0.472-0.959-0.976c0-0.392,0.207-0.64,0.647-0.792      c0.479-0.16,1.063-0.376,1.239-0.52v-0.136c0-0.584-0.271-0.903-0.68-0.903c-0.152,0-0.271,0.056-0.359,0.152      c-0.096,0.112-0.168,0.288-0.232,0.527c-0.039,0.128-0.119,0.184-0.231,0.184c-0.144,0-0.344-0.152-0.344-0.344      c0-0.112,0.096-0.208,0.247-0.32c0.217-0.16,0.744-0.464,1.199-0.56c0.24,0,0.48,0.072,0.656,0.216      c0.279,0.24,0.359,0.56,0.359,0.983V13c0,0.36,0.145,0.48,0.28,0.48c0.097,0,0.208-0.04,0.288-0.088l0.08,0.208L132.232,14.008z       M131.648,11.993c-0.168,0.088-0.552,0.256-0.72,0.336c-0.312,0.144-0.487,0.296-0.487,0.591c0,0.408,0.319,0.608,0.567,0.608      c0.208,0,0.487-0.136,0.64-0.288V11.993z" />
				<path d="M134.649,13.904c-0.137,0.072-0.256,0.104-0.336,0.104c-0.504,0-0.784-0.32-0.784-0.952v-2.319h-0.551l-0.033-0.088      l0.225-0.232h0.359V9.842l0.521-0.536l0.111,0.016v1.095h0.903c0.08,0.088,0.057,0.256-0.048,0.32h-0.855v2.047      c0,0.647,0.264,0.768,0.472,0.768c0.2,0,0.384-0.08,0.488-0.136l0.071,0.208L134.649,13.904z" />
				<path d="M138.081,14.008c-0.12,0-0.287-0.072-0.376-0.16c-0.104-0.104-0.151-0.216-0.191-0.352      c-0.32,0.216-0.704,0.512-0.943,0.512c-0.567,0-0.96-0.472-0.96-0.976c0-0.392,0.208-0.64,0.648-0.792      c0.479-0.16,1.063-0.376,1.239-0.52v-0.136c0-0.584-0.272-0.903-0.68-0.903c-0.152,0-0.272,0.056-0.36,0.152      c-0.096,0.112-0.168,0.288-0.231,0.527c-0.04,0.128-0.12,0.184-0.232,0.184c-0.144,0-0.344-0.152-0.344-0.344      c0-0.112,0.097-0.208,0.248-0.32c0.216-0.16,0.743-0.464,1.199-0.56c0.24,0,0.479,0.072,0.656,0.216      c0.279,0.24,0.359,0.56,0.359,0.983V13c0,0.36,0.144,0.48,0.28,0.48c0.096,0,0.207-0.04,0.287-0.088l0.08,0.208L138.081,14.008z       M137.498,11.993c-0.168,0.088-0.552,0.256-0.72,0.336c-0.313,0.144-0.488,0.296-0.488,0.591c0,0.408,0.32,0.608,0.568,0.608      c0.207,0,0.487-0.136,0.64-0.288V11.993z" />
			</g>
			<g>
				<path d="M103.738,42.07c1.016,0,1.76,0.2,2.255,0.68c0.399,0.384,0.68,0.967,0.68,1.719c0,0.959-0.376,1.671-0.983,2.135      c-0.6,0.464-1.399,0.664-2.375,0.664h-1.887v-0.216c0.688-0.048,0.752-0.096,0.752-0.776v-3.214c0-0.688-0.064-0.72-0.68-0.768      V42.07H103.738z M102.859,46.22c0,0.607,0.264,0.76,0.848,0.76c1.486,0,2.182-1.12,2.182-2.399c0-0.824-0.303-1.543-0.943-1.919      c-0.359-0.224-0.823-0.328-1.359-0.328c-0.336,0-0.543,0.04-0.623,0.104c-0.072,0.048-0.104,0.136-0.104,0.456V46.22z" />
				<path d="M110.242,46.596c-0.504,0.624-1.056,0.768-1.304,0.768c-0.983,0-1.56-0.8-1.56-1.703c0-0.544,0.2-1.04,0.528-1.399      c0.327-0.36,0.759-0.583,1.167-0.583h0.008c0.664,0,1.199,0.6,1.199,1.215c0,0.16-0.031,0.224-0.184,0.256      c-0.128,0.024-1.135,0.104-2.095,0.136c0.008,1.087,0.64,1.535,1.199,1.535c0.328,0,0.624-0.128,0.92-0.4L110.242,46.596z       M108.042,44.957c0.447,0,0.896-0.008,1.359-0.024c0.144,0,0.191-0.04,0.191-0.16c0.008-0.416-0.264-0.8-0.711-0.8      C108.522,43.973,108.163,44.309,108.042,44.957z" />
				<path d="M113.777,46.547c-0.352,0.464-0.879,0.816-1.352,0.816c-1.007,0-1.606-0.816-1.606-1.671      c0-0.616,0.272-1.151,0.808-1.559c0.416-0.32,0.896-0.456,1.191-0.456h0.008c0.328,0,0.592,0.104,0.72,0.216      c0.104,0.088,0.128,0.152,0.128,0.24c0,0.168-0.176,0.344-0.264,0.344c-0.049,0-0.088-0.024-0.152-0.088      c-0.24-0.224-0.52-0.328-0.808-0.328c-0.527,0-0.983,0.439-0.983,1.279c0,1.111,0.752,1.479,1.207,1.479      c0.344,0,0.6-0.096,0.968-0.44L113.777,46.547z" />
				<path d="M117.689,45.46c0,1.288-0.943,1.903-1.735,1.903c-1.095,0-1.751-0.88-1.751-1.767c0-1.319,1.023-1.919,1.759-1.919      C116.953,43.677,117.689,44.477,117.689,45.46z M114.947,45.34c0,1.007,0.432,1.759,1.095,1.759      c0.495,0,0.903-0.368,0.903-1.463c0-0.927-0.375-1.695-1.087-1.695C115.378,43.941,114.947,44.437,114.947,45.34z" />
				<path d="M122.552,47.267v-0.208c0.473-0.048,0.561-0.08,0.561-0.647v-1.335c0-0.567-0.2-0.927-0.704-0.927      c-0.288,0-0.592,0.168-0.896,0.416c0.016,0.096,0.023,0.192,0.023,0.336v1.559c0,0.504,0.072,0.552,0.512,0.6v0.208h-1.711      v-0.208c0.496-0.048,0.568-0.088,0.568-0.616v-1.375c0-0.584-0.208-0.919-0.704-0.919c-0.312,0-0.632,0.216-0.871,0.416v1.879      c0,0.52,0.071,0.568,0.464,0.616v0.208h-1.688v-0.208c0.527-0.048,0.6-0.096,0.6-0.616v-1.655c0-0.512-0.023-0.552-0.488-0.624      v-0.184c0.353-0.064,0.752-0.168,1.112-0.328v0.647c0.167-0.112,0.335-0.256,0.583-0.4c0.209-0.128,0.4-0.224,0.648-0.224      c0.383,0,0.727,0.248,0.895,0.664c0.232-0.184,0.465-0.328,0.664-0.456c0.168-0.112,0.376-0.208,0.607-0.208      c0.616,0,1.016,0.439,1.016,1.223v1.543c0,0.536,0.057,0.568,0.52,0.616v0.208H122.552z" />
				<path d="M126.377,43.805c0.144-0.088,0.296-0.128,0.392-0.128c0.888,0,1.416,0.728,1.416,1.511c0,1.207-0.952,1.982-1.992,2.175      c-0.239-0.008-0.447-0.088-0.551-0.144v1.047c0,0.607,0.056,0.656,0.672,0.704v0.216h-1.888V48.97      c0.512-0.048,0.584-0.096,0.584-0.624v-3.614c0-0.52-0.032-0.536-0.528-0.6v-0.192c0.336-0.056,0.784-0.192,1.16-0.344v0.631      L126.377,43.805z M125.642,46.659c0.176,0.184,0.472,0.312,0.752,0.312c0.671,0,1.119-0.576,1.119-1.471      c0-0.863-0.496-1.343-1.072-1.343c-0.256,0-0.583,0.176-0.799,0.344V46.659z" />
				<path d="M132.335,45.46c0,1.288-0.943,1.903-1.734,1.903c-1.096,0-1.751-0.88-1.751-1.767c0-1.319,1.023-1.919,1.759-1.919      C131.601,43.677,132.335,44.477,132.335,45.46z M129.593,45.34c0,1.007,0.432,1.759,1.096,1.759      c0.496,0,0.903-0.368,0.903-1.463c0-0.927-0.376-1.695-1.087-1.695C130.025,43.941,129.593,44.437,129.593,45.34z" />
				<path d="M134.985,44.725c-0.159-0.48-0.432-0.792-0.823-0.792c-0.313,0-0.52,0.232-0.52,0.551c0,0.352,0.319,0.536,0.672,0.688      c0.607,0.248,1.015,0.536,1.015,1.087c0,0.728-0.68,1.104-1.319,1.104c-0.408,0-0.775-0.152-0.911-0.272      c-0.056-0.112-0.136-0.656-0.136-0.944l0.216-0.04c0.136,0.527,0.495,0.991,0.976,0.991c0.295,0,0.567-0.216,0.567-0.56      c0-0.352-0.231-0.544-0.632-0.728c-0.479-0.216-1-0.488-1-1.096c0-0.56,0.48-1.039,1.216-1.039c0.328,0,0.544,0.072,0.704,0.144      c0.072,0.176,0.16,0.656,0.176,0.848L134.985,44.725z" />
				<path d="M135.827,47.267v-0.208c0.504-0.048,0.56-0.096,0.56-0.64v-1.647c0-0.496-0.023-0.536-0.504-0.607v-0.192      c0.408-0.063,0.792-0.167,1.136-0.312v2.758c0,0.544,0.056,0.592,0.567,0.64v0.208H135.827z M136.25,42.574      c0-0.24,0.192-0.416,0.407-0.416c0.225,0,0.4,0.176,0.4,0.416c0,0.216-0.176,0.408-0.408,0.408      C136.443,42.981,136.25,42.79,136.25,42.574z" />
				<path d="M139.458,47.259c-0.136,0.072-0.256,0.104-0.336,0.104c-0.503,0-0.783-0.32-0.783-0.952v-2.319h-0.552l-0.032-0.088      l0.224-0.232h0.36v-0.576l0.52-0.536l0.112,0.016v1.095h0.903c0.08,0.088,0.056,0.256-0.048,0.32h-0.855v2.047      c0,0.647,0.264,0.768,0.472,0.768c0.2,0,0.384-0.08,0.487-0.136l0.072,0.208L139.458,47.259z" />
				<path d="M140.355,47.267v-0.208c0.504-0.048,0.559-0.096,0.559-0.64v-1.647c0-0.496-0.023-0.536-0.503-0.607v-0.192      c0.407-0.063,0.792-0.167,1.136-0.312v2.758c0,0.544,0.056,0.592,0.567,0.64v0.208H140.355z M140.779,42.574      c0-0.24,0.191-0.416,0.407-0.416c0.224,0,0.399,0.176,0.399,0.416c0,0.216-0.176,0.408-0.407,0.408      C140.97,42.981,140.779,42.79,140.779,42.574z" />
				<path d="M146.025,45.46c0,1.288-0.943,1.903-1.735,1.903c-1.095,0-1.751-0.88-1.751-1.767c0-1.319,1.023-1.919,1.759-1.919      C145.289,43.677,146.025,44.477,146.025,45.46z M143.283,45.34c0,1.007,0.432,1.759,1.095,1.759      c0.495,0,0.903-0.368,0.903-1.463c0-0.927-0.375-1.695-1.087-1.695C143.714,43.941,143.283,44.437,143.283,45.34z" />
				<path d="M148.746,47.267v-0.208c0.471-0.048,0.527-0.112,0.527-0.664v-1.335c0-0.552-0.191-0.912-0.728-0.912      c-0.319,0-0.632,0.2-0.872,0.408v1.879c0,0.544,0.049,0.576,0.52,0.624v0.208h-1.734v-0.208      c0.543-0.056,0.584-0.096,0.584-0.624v-1.647c0-0.512-0.049-0.544-0.48-0.624v-0.184c0.385-0.072,0.76-0.168,1.111-0.32v0.632      c0.16-0.12,0.336-0.24,0.536-0.376c0.224-0.144,0.432-0.24,0.663-0.24c0.641,0,1.032,0.448,1.032,1.215v1.543      c0,0.544,0.048,0.576,0.512,0.624v0.208H148.746z" />
				<path d="M157.984,43.981c-0.4,0.056-0.473,0.152-0.633,0.592c-0.239,0.64-0.6,1.703-0.959,2.782h-0.231      c-0.32-0.863-0.647-1.647-0.976-2.487c-0.304,0.808-0.632,1.6-0.951,2.487h-0.225c-0.295-0.952-0.592-1.895-0.928-2.854      c-0.144-0.416-0.207-0.472-0.592-0.52v-0.208h1.656v0.208c-0.48,0.072-0.52,0.12-0.408,0.488      c0.191,0.607,0.392,1.239,0.592,1.855h0.016c0.296-0.768,0.592-1.583,0.928-2.511h0.208c0.296,0.832,0.624,1.679,0.96,2.542      h0.016c0.176-0.552,0.399-1.255,0.551-1.847c0.104-0.416,0.049-0.456-0.463-0.528v-0.208h1.439V43.981z" />
				<path d="M158.178,47.267v-0.208c0.504-0.048,0.56-0.096,0.56-0.64v-1.647c0-0.496-0.023-0.536-0.504-0.607v-0.192      c0.408-0.063,0.792-0.167,1.136-0.312v2.758c0,0.544,0.056,0.592,0.567,0.64v0.208H158.178z M158.602,42.574      c0-0.24,0.192-0.416,0.407-0.416c0.225,0,0.4,0.176,0.4,0.416c0,0.216-0.176,0.408-0.408,0.408      C158.794,42.981,158.602,42.79,158.602,42.574z" />
				<path d="M161.81,47.259c-0.137,0.072-0.256,0.104-0.336,0.104c-0.504,0-0.783-0.32-0.783-0.952v-2.319h-0.553l-0.031-0.088      l0.224-0.232h0.36v-0.576l0.52-0.536l0.111,0.016v1.095h0.904c0.079,0.088,0.055,0.256-0.049,0.32h-0.855v2.047      c0,0.647,0.264,0.768,0.472,0.768c0.2,0,0.384-0.08,0.487-0.136l0.072,0.208L161.81,47.259z" />
				<path d="M164.873,47.267v-0.208c0.465-0.048,0.528-0.096,0.528-0.616v-1.327c0-0.656-0.248-0.983-0.784-0.983      c-0.303,0-0.607,0.152-0.831,0.408v1.903c0,0.512,0.04,0.568,0.521,0.616v0.208h-1.703l0.008-0.208      c0.479-0.04,0.543-0.088,0.543-0.616V42.63c0-0.504-0.016-0.536-0.543-0.584v-0.192c0.383-0.056,0.863-0.184,1.175-0.28v2.687      c0.288-0.288,0.712-0.583,1.144-0.583c0.647,0,1.104,0.408,1.104,1.367v1.399c0,0.528,0.064,0.576,0.527,0.616v0.208H164.873z" />
				<path d="M171.128,42.07c1.016,0,1.76,0.2,2.256,0.68c0.399,0.384,0.68,0.967,0.68,1.719c0,0.959-0.377,1.671-0.984,2.135      c-0.6,0.464-1.398,0.664-2.375,0.664h-1.887v-0.216c0.688-0.048,0.752-0.096,0.752-0.776v-3.214c0-0.688-0.064-0.72-0.68-0.768      V42.07H171.128z M170.25,46.22c0,0.607,0.264,0.76,0.848,0.76c1.486,0,2.183-1.12,2.183-2.399c0-0.824-0.304-1.543-0.943-1.919      c-0.36-0.224-0.823-0.328-1.359-0.328c-0.336,0-0.544,0.04-0.624,0.104c-0.072,0.048-0.104,0.136-0.104,0.456V46.22z" />
				<path d="M178.064,43.277c-0.071-0.32-0.119-0.48-0.224-0.64c-0.136-0.224-0.304-0.296-0.911-0.296h-0.607      c-0.24,0-0.265,0.024-0.265,0.256V44.5h0.824c0.728,0,0.768-0.072,0.863-0.591h0.231v1.543h-0.231      c-0.096-0.552-0.136-0.64-0.863-0.64h-0.824v1.447c0,0.688,0.064,0.735,0.792,0.783v0.224h-2.175v-0.224      c0.64-0.048,0.704-0.096,0.704-0.783v-3.19c0-0.688-0.064-0.728-0.68-0.775V42.07h3.518c0.008,0.288,0.048,0.792,0.08,1.175      L178.064,43.277z" />
				<path d="M183.08,43.309c-0.08-0.384-0.159-0.583-0.247-0.711c-0.137-0.192-0.265-0.256-0.872-0.256h-0.56v3.942      c0,0.631,0.063,0.711,0.815,0.759v0.224h-2.287v-0.224c0.729-0.048,0.792-0.128,0.792-0.759v-3.942h-0.496      c-0.663,0-0.823,0.072-0.927,0.248c-0.097,0.136-0.16,0.368-0.256,0.719h-0.232c0.04-0.479,0.08-1,0.096-1.439h0.16      c0.112,0.184,0.216,0.2,0.44,0.2h3.158c0.216,0,0.279-0.048,0.399-0.2h0.168c0.008,0.368,0.04,0.951,0.088,1.415L183.08,43.309z      " />
			</g>
			<g>
				<path d="M49.375,101.152c-0.136-0.504-0.352-1.056-1.048-1.056c-0.615,0-0.887,0.44-0.887,0.872      c0,0.584,0.384,0.864,1.015,1.184c0.632,0.328,1.383,0.695,1.383,1.599c0,0.839-0.711,1.511-1.775,1.511      c-0.328,0-0.592-0.064-0.784-0.12c-0.2-0.064-0.32-0.128-0.4-0.168c-0.056-0.168-0.16-0.855-0.216-1.239l0.24-0.056      c0.12,0.488,0.479,1.295,1.311,1.295c0.608,0,0.959-0.375,0.959-0.959c0-0.592-0.439-0.872-1.04-1.191      c-0.512-0.28-1.319-0.671-1.319-1.575c0-0.768,0.615-1.423,1.647-1.423c0.368,0,0.704,0.088,1.007,0.184      c0.032,0.28,0.072,0.6,0.136,1.104L49.375,101.152z" />
				<path d="M53.399,104.471c-0.504,0.624-1.055,0.768-1.303,0.768c-0.983,0-1.559-0.8-1.559-1.703c0-0.544,0.2-1.04,0.528-1.399      c0.328-0.36,0.759-0.583,1.167-0.583h0.008c0.664,0,1.199,0.6,1.199,1.215c0,0.16-0.032,0.224-0.184,0.256      c-0.128,0.024-1.135,0.104-2.095,0.136c0.008,1.087,0.64,1.535,1.199,1.535c0.328,0,0.624-0.128,0.919-0.4L53.399,104.471z       M51.2,102.832c0.448,0,0.896-0.008,1.359-0.024c0.144,0,0.192-0.04,0.192-0.16c0.008-0.416-0.264-0.8-0.712-0.8      C51.68,101.848,51.32,102.184,51.2,102.832z" />
				<path d="M55.479,105.134c-0.136,0.072-0.256,0.104-0.335,0.104c-0.504,0-0.784-0.32-0.784-0.952v-2.319h-0.552l-0.032-0.088      L54,101.648h0.36v-0.576l0.52-0.536l0.112,0.016v1.095h0.904c0.08,0.088,0.056,0.256-0.048,0.32h-0.855v2.047      c0,0.647,0.264,0.768,0.472,0.768c0.2,0,0.384-0.08,0.488-0.136l0.072,0.208L55.479,105.134z" />
				<path d="M59.735,105.134c-0.136,0.072-0.256,0.104-0.335,0.104c-0.504,0-0.784-0.32-0.784-0.952v-2.319h-0.552l-0.032-0.088      l0.224-0.232h0.36v-0.576l0.52-0.536l0.112,0.016v1.095h0.904c0.08,0.088,0.056,0.256-0.048,0.32h-0.855v2.047      c0,0.647,0.264,0.768,0.472,0.768c0.2,0,0.384-0.08,0.488-0.136l0.072,0.208L59.735,105.134z" />
				<path d="M62.799,105.142v-0.208c0.464-0.048,0.528-0.096,0.528-0.616v-1.327c0-0.656-0.248-0.983-0.784-0.983      c-0.304,0-0.607,0.152-0.832,0.408v1.903c0,0.512,0.04,0.568,0.52,0.616v0.208h-1.703l0.008-0.208      c0.48-0.04,0.544-0.088,0.544-0.616v-3.813c0-0.504-0.016-0.536-0.544-0.584v-0.192c0.384-0.056,0.864-0.184,1.175-0.28v2.687      c0.288-0.288,0.712-0.583,1.144-0.583c0.647,0,1.104,0.408,1.104,1.367v1.399c0,0.528,0.064,0.576,0.527,0.616v0.208H62.799z" />
				<path d="M66.12,102.408c0.24-0.408,0.583-0.855,0.967-0.855c0.272,0,0.464,0.216,0.464,0.399c0,0.16-0.104,0.32-0.256,0.392      c-0.096,0.04-0.16,0.032-0.208-0.016c-0.12-0.112-0.216-0.16-0.344-0.16c-0.208,0-0.464,0.231-0.64,0.679v1.463      c0,0.528,0.04,0.576,0.656,0.624v0.208H64.92v-0.208c0.496-0.048,0.552-0.096,0.552-0.624v-1.655      c0-0.527-0.032-0.56-0.496-0.615v-0.184c0.392-0.064,0.744-0.16,1.127-0.32v0.872H66.12z" />
				<path d="M70.679,104.471c-0.503,0.624-1.055,0.768-1.303,0.768c-0.983,0-1.559-0.8-1.559-1.703c0-0.544,0.2-1.04,0.528-1.399      c0.328-0.36,0.759-0.583,1.167-0.583h0.008c0.664,0,1.199,0.6,1.199,1.215c0,0.16-0.032,0.224-0.184,0.256      c-0.128,0.024-1.135,0.104-2.095,0.136c0.008,1.087,0.64,1.535,1.199,1.535c0.328,0,0.624-0.128,0.92-0.4L70.679,104.471z       M68.48,102.832c0.448,0,0.896-0.008,1.359-0.024c0.144,0,0.192-0.04,0.192-0.16c0.008-0.416-0.264-0.8-0.712-0.8      C68.959,101.848,68.6,102.184,68.48,102.832z" />
				<path d="M73.271,102.6c-0.16-0.48-0.432-0.792-0.823-0.792c-0.312,0-0.52,0.232-0.52,0.551c0,0.352,0.32,0.536,0.672,0.688      c0.607,0.248,1.015,0.536,1.015,1.087c0,0.728-0.68,1.104-1.319,1.104c-0.408,0-0.775-0.152-0.911-0.272      c-0.056-0.112-0.136-0.656-0.136-0.944l0.216-0.04c0.136,0.527,0.496,0.991,0.975,0.991c0.296,0,0.568-0.216,0.568-0.56      c0-0.352-0.232-0.544-0.632-0.728c-0.479-0.216-1-0.488-1-1.096c0-0.56,0.48-1.039,1.215-1.039c0.328,0,0.544,0.072,0.704,0.144      c0.072,0.176,0.16,0.656,0.176,0.848L73.271,102.6z" />
				<path d="M76.239,105.142v-0.208c0.464-0.048,0.528-0.096,0.528-0.616v-1.327c0-0.656-0.248-0.983-0.784-0.983      c-0.304,0-0.607,0.152-0.832,0.408v1.903c0,0.512,0.04,0.568,0.52,0.616v0.208h-1.703l0.008-0.208      c0.48-0.04,0.544-0.088,0.544-0.616v-3.813c0-0.504-0.016-0.536-0.544-0.584v-0.192c0.384-0.056,0.864-0.184,1.175-0.28v2.687      c0.288-0.288,0.712-0.583,1.144-0.583c0.647,0,1.104,0.408,1.104,1.367v1.399c0,0.528,0.064,0.576,0.527,0.616v0.208H76.239z" />
				<path d="M81.846,103.335c0,1.288-0.943,1.903-1.735,1.903c-1.095,0-1.751-0.88-1.751-1.767c0-1.319,1.023-1.919,1.759-1.919      C81.111,101.552,81.846,102.352,81.846,103.335z M79.104,103.215c0,1.007,0.432,1.759,1.095,1.759      c0.496,0,0.904-0.368,0.904-1.463c0-0.927-0.376-1.695-1.088-1.695C79.536,101.816,79.104,102.312,79.104,103.215z" />
				<path d="M82.208,105.142v-0.208c0.503-0.048,0.576-0.096,0.576-0.624v-3.782c0-0.544-0.048-0.56-0.552-0.608v-0.192      c0.416-0.048,0.912-0.184,1.183-0.28v4.861c0,0.528,0.064,0.576,0.576,0.624v0.208H82.208z" />
				<path d="M88.246,104.934c-0.176,0.032-0.776,0.136-1.239,0.304v-0.52l-0.488,0.288c-0.32,0.184-0.536,0.232-0.624,0.232      c-0.64,0-1.479-0.584-1.479-1.703c0-1.111,0.968-1.983,2.055-1.983c0.112,0,0.352,0.024,0.536,0.096v-1.143      c0-0.52-0.04-0.544-0.616-0.584v-0.2c0.416-0.048,0.951-0.176,1.247-0.272v4.773c0,0.416,0.056,0.456,0.352,0.488l0.256,0.024      V104.934z M87.007,102.264c-0.192-0.28-0.528-0.408-0.824-0.408c-0.376,0-1.047,0.304-1.047,1.463      c0,0.951,0.583,1.415,1.104,1.415c0.28,0,0.576-0.128,0.768-0.272V102.264z" />
			</g>
			<g>
				<path d="M126.718,101.879c-0.096,0-0.191,0-0.279-0.008c-0.608-0.032-0.936-0.208-1.296-0.728      c-0.28-0.392-0.567-0.888-0.808-1.279c-0.136-0.224-0.271-0.32-0.68-0.32H123.4v1.271c0,0.68,0.072,0.728,0.704,0.775v0.224      h-2.095v-0.224c0.655-0.048,0.719-0.096,0.719-0.775v-3.214c0-0.679-0.063-0.704-0.688-0.759v-0.224h1.983      c0.583,0,0.976,0.072,1.271,0.272c0.328,0.208,0.536,0.568,0.536,1.047c0,0.688-0.432,1.111-1.015,1.375      c0.135,0.256,0.471,0.792,0.711,1.151c0.288,0.416,0.447,0.624,0.648,0.832c0.207,0.24,0.398,0.328,0.575,0.375L126.718,101.879      z M123.784,99.288c0.399,0,0.664-0.063,0.864-0.231c0.312-0.24,0.439-0.56,0.439-0.992c0-0.863-0.568-1.183-1.168-1.183      c-0.231,0-0.367,0.032-0.432,0.08c-0.063,0.04-0.088,0.128-0.088,0.352v1.975H123.784z" />
				<path d="M129.855,101.144c-0.504,0.624-1.055,0.768-1.303,0.768c-0.984,0-1.56-0.8-1.56-1.703c0-0.544,0.2-1.04,0.528-1.399      c0.327-0.36,0.759-0.583,1.166-0.583h0.009c0.663,0,1.199,0.6,1.199,1.215c0,0.16-0.032,0.224-0.185,0.256      c-0.127,0.024-1.135,0.104-2.094,0.136c0.008,1.087,0.639,1.535,1.199,1.535c0.328,0,0.623-0.128,0.919-0.4L129.855,101.144z       M127.656,99.504c0.448,0,0.896-0.008,1.359-0.024c0.145,0,0.192-0.04,0.192-0.16c0.008-0.416-0.265-0.8-0.712-0.8      C128.136,98.521,127.777,98.856,127.656,99.504z" />
				<path d="M132.447,99.272c-0.159-0.48-0.432-0.792-0.822-0.792c-0.313,0-0.521,0.232-0.521,0.551      c0,0.352,0.319,0.536,0.672,0.688c0.607,0.248,1.015,0.536,1.015,1.087c0,0.728-0.679,1.104-1.318,1.104      c-0.408,0-0.775-0.152-0.912-0.272c-0.056-0.112-0.136-0.656-0.136-0.944l0.216-0.04c0.137,0.527,0.496,0.991,0.976,0.991      c0.296,0,0.567-0.216,0.567-0.56c0-0.352-0.231-0.544-0.631-0.728c-0.48-0.216-1-0.488-1-1.096c0-0.56,0.48-1.039,1.215-1.039      c0.328,0,0.545,0.072,0.704,0.144c0.072,0.176,0.16,0.656,0.177,0.848L132.447,99.272z" />
				<path d="M133.289,101.815v-0.208c0.504-0.048,0.56-0.096,0.56-0.64V99.32c0-0.496-0.024-0.536-0.503-0.607v-0.192      c0.407-0.063,0.791-0.167,1.135-0.312v2.758c0,0.544,0.056,0.592,0.567,0.64v0.208H133.289z M133.712,97.122      c0-0.24,0.191-0.416,0.408-0.416c0.224,0,0.399,0.176,0.399,0.416c0,0.216-0.176,0.408-0.407,0.408      C133.904,97.529,133.712,97.337,133.712,97.122z" />
				<path d="M139.31,101.607c-0.176,0.032-0.775,0.136-1.238,0.304v-0.52l-0.488,0.288c-0.32,0.184-0.535,0.232-0.623,0.232      c-0.641,0-1.48-0.584-1.48-1.703c0-1.111,0.969-1.983,2.056-1.983c0.112,0,0.352,0.024,0.536,0.096v-1.143      c0-0.52-0.041-0.544-0.616-0.584v-0.2c0.415-0.048,0.951-0.176,1.247-0.272v4.773c0,0.416,0.057,0.456,0.352,0.488l0.256,0.024      V101.607z M138.072,98.937c-0.192-0.28-0.528-0.408-0.824-0.408c-0.376,0-1.047,0.304-1.047,1.463      c0,0.951,0.583,1.415,1.104,1.415c0.279,0,0.575-0.128,0.768-0.272V98.937z" />
				<path d="M143.447,101.623c-0.176,0.024-0.399,0.072-0.615,0.128c-0.208,0.056-0.408,0.12-0.561,0.16l-0.047-0.048v-0.567      c-0.185,0.136-0.36,0.28-0.592,0.416c-0.232,0.136-0.4,0.2-0.616,0.2c-0.536,0-0.991-0.328-0.991-1.191v-1.567      c0-0.424-0.064-0.464-0.264-0.512l-0.225-0.048v-0.184c0.168-0.008,0.368-0.032,0.576-0.056      c0.216-0.032,0.439-0.064,0.567-0.088c-0.024,0.248-0.024,0.624-0.024,1.16v1.08c0,0.711,0.345,0.903,0.704,0.903      c0.288,0,0.592-0.12,0.864-0.384v-1.871c0-0.424-0.072-0.472-0.336-0.512l-0.288-0.048v-0.184      c0.216-0.008,0.487-0.032,0.72-0.064c0.224-0.024,0.416-0.056,0.535-0.08v2.671c0,0.399,0.064,0.448,0.376,0.472l0.216,0.008      V101.623z" />
				<path d="M146.359,101.911c-0.119,0-0.287-0.072-0.375-0.16c-0.104-0.104-0.152-0.216-0.192-0.352      c-0.319,0.216-0.704,0.512-0.943,0.512c-0.567,0-0.96-0.472-0.96-0.976c0-0.392,0.208-0.64,0.648-0.792      c0.479-0.16,1.063-0.376,1.238-0.52v-0.136c0-0.584-0.271-0.903-0.68-0.903c-0.151,0-0.271,0.056-0.359,0.152      c-0.096,0.112-0.168,0.288-0.231,0.527c-0.04,0.128-0.12,0.184-0.231,0.184c-0.145,0-0.345-0.152-0.345-0.344      c0-0.112,0.097-0.208,0.248-0.32c0.216-0.16,0.743-0.464,1.199-0.56c0.24,0,0.479,0.072,0.655,0.216      c0.28,0.24,0.36,0.56,0.36,0.983v1.479c0,0.36,0.144,0.48,0.28,0.48c0.096,0,0.207-0.04,0.287-0.088l0.08,0.208L146.359,101.911      z M145.775,99.896c-0.168,0.088-0.551,0.256-0.719,0.336c-0.313,0.144-0.488,0.296-0.488,0.591c0,0.408,0.32,0.608,0.568,0.608      c0.207,0,0.487-0.136,0.639-0.288V99.896z" />
				<path d="M147.25,101.815v-0.208c0.503-0.048,0.575-0.096,0.575-0.624v-3.782c0-0.544-0.048-0.56-0.552-0.608v-0.192      c0.416-0.048,0.911-0.184,1.184-0.28v4.861c0,0.528,0.063,0.576,0.575,0.624v0.208H147.25z" />
				<path d="M154.223,101.095c-0.353,0.464-0.88,0.816-1.352,0.816c-1.007,0-1.606-0.816-1.606-1.671      c0-0.616,0.271-1.151,0.807-1.559c0.416-0.32,0.896-0.456,1.191-0.456h0.008c0.328,0,0.592,0.104,0.721,0.216      c0.104,0.088,0.127,0.152,0.127,0.24c0,0.168-0.176,0.344-0.264,0.344c-0.048,0-0.088-0.024-0.152-0.088      c-0.239-0.224-0.52-0.328-0.807-0.328c-0.527,0-0.984,0.439-0.984,1.279c0,1.111,0.752,1.479,1.208,1.479      c0.344,0,0.6-0.096,0.968-0.44L154.223,101.095z" />
				<path d="M158.134,100.008c0,1.288-0.943,1.903-1.734,1.903c-1.096,0-1.752-0.88-1.752-1.767c0-1.319,1.023-1.919,1.76-1.919      C157.399,98.225,158.134,99.024,158.134,100.008z M155.392,99.888c0,1.007,0.432,1.759,1.096,1.759      c0.495,0,0.903-0.368,0.903-1.463c0-0.927-0.376-1.695-1.088-1.695C155.824,98.489,155.392,98.984,155.392,99.888z" />
				<path d="M162.999,101.815v-0.208c0.472-0.048,0.56-0.08,0.56-0.647v-1.335c0-0.567-0.2-0.927-0.703-0.927      c-0.289,0-0.592,0.168-0.896,0.416c0.017,0.096,0.024,0.192,0.024,0.336v1.559c0,0.504,0.071,0.552,0.512,0.6v0.208h-1.711      v-0.208c0.495-0.048,0.567-0.088,0.567-0.616v-1.375c0-0.584-0.207-0.919-0.703-0.919c-0.313,0-0.632,0.216-0.872,0.416v1.879      c0,0.52,0.072,0.568,0.464,0.616v0.208h-1.688v-0.208c0.528-0.048,0.6-0.096,0.6-0.616v-1.655c0-0.512-0.023-0.552-0.487-0.624      v-0.184c0.353-0.064,0.752-0.168,1.111-0.328v0.647c0.168-0.112,0.336-0.256,0.584-0.4c0.208-0.128,0.399-0.224,0.647-0.224      c0.384,0,0.728,0.248,0.896,0.664c0.231-0.184,0.464-0.328,0.663-0.456c0.168-0.112,0.377-0.208,0.608-0.208      c0.616,0,1.016,0.439,1.016,1.223v1.543c0,0.536,0.056,0.568,0.52,0.616v0.208H162.999z" />
				<path d="M166.824,98.353c0.145-0.088,0.296-0.128,0.392-0.128c0.888,0,1.415,0.728,1.415,1.511c0,1.207-0.951,1.982-1.99,2.175      c-0.24-0.008-0.448-0.088-0.553-0.144v1.047c0,0.607,0.057,0.656,0.672,0.704v0.216h-1.887v-0.216      c0.512-0.048,0.584-0.096,0.584-0.624V99.28c0-0.52-0.032-0.536-0.527-0.6v-0.192c0.336-0.056,0.783-0.192,1.158-0.344v0.631      L166.824,98.353z M166.087,101.207c0.177,0.184,0.473,0.312,0.752,0.312c0.672,0,1.119-0.576,1.119-1.471      c0-0.863-0.495-1.343-1.07-1.343c-0.256,0-0.584,0.176-0.801,0.344V101.207z" />
				<path d="M172.783,100.008c0,1.288-0.943,1.903-1.735,1.903c-1.095,0-1.751-0.88-1.751-1.767c0-1.319,1.023-1.919,1.759-1.919      C172.046,98.225,172.783,99.024,172.783,100.008z M170.041,99.888c0,1.007,0.432,1.759,1.095,1.759      c0.495,0,0.903-0.368,0.903-1.463c0-0.927-0.375-1.695-1.087-1.695C170.472,98.489,170.041,98.984,170.041,99.888z" />
				<path d="M175.503,101.815v-0.208c0.471-0.048,0.527-0.112,0.527-0.664v-1.335c0-0.552-0.191-0.912-0.728-0.912      c-0.319,0-0.632,0.2-0.872,0.408v1.879c0,0.544,0.049,0.576,0.52,0.624v0.208h-1.734v-0.208      c0.543-0.056,0.584-0.096,0.584-0.624v-1.647c0-0.512-0.049-0.544-0.48-0.624v-0.184c0.385-0.072,0.76-0.168,1.111-0.32v0.632      c0.16-0.12,0.336-0.24,0.536-0.376c0.224-0.144,0.432-0.24,0.663-0.24c0.641,0,1.032,0.448,1.032,1.215v1.543      c0,0.544,0.048,0.576,0.512,0.624v0.208H175.503z" />
				<path d="M180.487,101.144c-0.504,0.624-1.056,0.768-1.304,0.768c-0.982,0-1.559-0.8-1.559-1.703c0-0.544,0.199-1.04,0.527-1.399      s0.76-0.583,1.168-0.583h0.008c0.664,0,1.199,0.6,1.199,1.215c0,0.16-0.032,0.224-0.184,0.256      c-0.129,0.024-1.136,0.104-2.096,0.136c0.009,1.087,0.641,1.535,1.199,1.535c0.328,0,0.625-0.128,0.92-0.4L180.487,101.144z       M178.289,99.504c0.447,0,0.895-0.008,1.359-0.024c0.144,0,0.191-0.04,0.191-0.16c0.008-0.416-0.264-0.8-0.712-0.8      C178.768,98.521,178.408,98.856,178.289,99.504z" />
				<path d="M183.248,101.815v-0.208c0.471-0.048,0.527-0.112,0.527-0.664v-1.335c0-0.552-0.191-0.912-0.728-0.912      c-0.319,0-0.632,0.2-0.872,0.408v1.879c0,0.544,0.049,0.576,0.52,0.624v0.208h-1.734v-0.208      c0.543-0.056,0.584-0.096,0.584-0.624v-1.647c0-0.512-0.049-0.544-0.48-0.624v-0.184c0.385-0.072,0.76-0.168,1.111-0.32v0.632      c0.16-0.12,0.336-0.24,0.536-0.376c0.224-0.144,0.432-0.24,0.663-0.24c0.641,0,1.032,0.448,1.032,1.215v1.543      c0,0.544,0.048,0.576,0.512,0.624v0.208H183.248z" />
				<path d="M186.792,101.807c-0.136,0.072-0.256,0.104-0.336,0.104c-0.503,0-0.783-0.32-0.783-0.952v-2.319h-0.552l-0.032-0.088      l0.224-0.232h0.36v-0.576l0.52-0.536l0.112,0.016v1.095h0.903c0.08,0.088,0.056,0.256-0.048,0.32h-0.855v2.047      c0,0.647,0.264,0.768,0.472,0.768c0.2,0,0.384-0.08,0.487-0.136l0.072,0.208L186.792,101.807z" />
			</g>
			<g>
				<path d="M129.047,136.435c0.567,0,1.031,0.096,1.351,0.328c0.313,0.24,0.512,0.607,0.512,1.127c0,1.039-0.775,1.543-1.559,1.639      c-0.12,0.016-0.271,0.016-0.359,0.008l-0.592-0.152v1.255c0,0.68,0.072,0.72,0.791,0.768v0.224h-2.166v-0.224      c0.639-0.048,0.703-0.112,0.703-0.775v-3.198c0-0.704-0.064-0.735-0.656-0.775v-0.224H129.047z M128.4,139.122      c0.104,0.04,0.319,0.096,0.584,0.096c0.52,0,1.158-0.28,1.158-1.295c0-0.864-0.551-1.231-1.207-1.231      c-0.224,0-0.392,0.04-0.447,0.096c-0.064,0.048-0.088,0.144-0.088,0.375V139.122z" />
				<path d="M132.6,138.898c0.239-0.408,0.583-0.855,0.968-0.855c0.271,0,0.463,0.216,0.463,0.399c0,0.16-0.104,0.32-0.256,0.392      c-0.096,0.04-0.16,0.032-0.207-0.016c-0.121-0.112-0.217-0.16-0.344-0.16c-0.209,0-0.465,0.231-0.641,0.679v1.463      c0,0.528,0.041,0.576,0.656,0.624v0.208h-1.84v-0.208c0.496-0.048,0.553-0.096,0.553-0.624v-1.655      c0-0.527-0.032-0.56-0.496-0.615v-0.184c0.392-0.064,0.744-0.16,1.127-0.32v0.872H132.6z" />
				<path d="M137.159,140.961c-0.504,0.624-1.056,0.768-1.304,0.768c-0.982,0-1.559-0.8-1.559-1.703c0-0.544,0.199-1.04,0.527-1.399      s0.76-0.583,1.168-0.583H136c0.664,0,1.199,0.6,1.199,1.215c0,0.16-0.032,0.224-0.184,0.256      c-0.129,0.024-1.136,0.104-2.096,0.136c0.009,1.087,0.641,1.535,1.199,1.535c0.328,0,0.625-0.128,0.92-0.4L137.159,140.961z       M134.96,139.322c0.447,0,0.895-0.008,1.359-0.024c0.144,0,0.191-0.04,0.191-0.16c0.008-0.416-0.264-0.8-0.712-0.8      C135.44,138.338,135.08,138.674,134.96,139.322z" />
				<path d="M139.488,138.17c0.144-0.088,0.295-0.128,0.391-0.128c0.889,0,1.416,0.728,1.416,1.511c0,1.207-0.951,1.982-1.991,2.175      c-0.239-0.008-0.448-0.088-0.552-0.144v1.047c0,0.607,0.057,0.656,0.672,0.704v0.216h-1.887v-0.216      c0.512-0.048,0.584-0.096,0.584-0.624v-3.614c0-0.52-0.033-0.536-0.528-0.6v-0.192c0.336-0.056,0.784-0.192,1.159-0.344v0.631      L139.488,138.17z M138.751,141.024c0.176,0.184,0.472,0.312,0.752,0.312c0.672,0,1.119-0.576,1.119-1.471      c0-0.863-0.496-1.343-1.071-1.343c-0.256,0-0.584,0.176-0.8,0.344V141.024z" />
				<path d="M142.96,138.898c0.239-0.408,0.583-0.855,0.967-0.855c0.271,0,0.464,0.216,0.464,0.399c0,0.16-0.104,0.32-0.256,0.392      c-0.097,0.04-0.16,0.032-0.208-0.016c-0.12-0.112-0.216-0.16-0.344-0.16c-0.208,0-0.464,0.231-0.64,0.679v1.463      c0,0.528,0.04,0.576,0.655,0.624v0.208h-1.839v-0.208c0.496-0.048,0.552-0.096,0.552-0.624v-1.655      c0-0.527-0.031-0.56-0.496-0.615v-0.184c0.393-0.064,0.744-0.16,1.128-0.32v0.872H142.96z" />
				<path d="M148.142,139.825c0,1.288-0.943,1.903-1.734,1.903c-1.096,0-1.752-0.88-1.752-1.767c0-1.319,1.023-1.919,1.76-1.919      C147.407,138.042,148.142,138.842,148.142,139.825z M145.4,139.706c0,1.007,0.432,1.759,1.096,1.759      c0.495,0,0.903-0.368,0.903-1.463c0-0.927-0.376-1.695-1.088-1.695C145.832,138.306,145.4,138.802,145.4,139.706z" />
				<path d="M151.767,140.913c-0.353,0.464-0.881,0.816-1.352,0.816c-1.008,0-1.607-0.816-1.607-1.671      c0-0.616,0.271-1.151,0.808-1.559c0.415-0.32,0.896-0.456,1.191-0.456h0.008c0.327,0,0.592,0.104,0.72,0.216      c0.104,0.088,0.128,0.152,0.128,0.24c0,0.168-0.176,0.344-0.265,0.344c-0.047,0-0.088-0.024-0.151-0.088      c-0.239-0.224-0.52-0.328-0.808-0.328c-0.527,0-0.983,0.439-0.983,1.279c0,1.111,0.752,1.479,1.208,1.479      c0.344,0,0.6-0.096,0.967-0.44L151.767,140.913z" />
				<path d="M155.054,140.961c-0.504,0.624-1.055,0.768-1.303,0.768c-0.984,0-1.56-0.8-1.56-1.703c0-0.544,0.2-1.04,0.528-1.399      c0.327-0.36,0.759-0.583,1.166-0.583h0.009c0.663,0,1.199,0.6,1.199,1.215c0,0.16-0.032,0.224-0.185,0.256      c-0.127,0.024-1.135,0.104-2.094,0.136c0.008,1.087,0.639,1.535,1.199,1.535c0.328,0,0.623-0.128,0.919-0.4L155.054,140.961z       M152.855,139.322c0.448,0,0.896-0.008,1.359-0.024c0.145,0,0.192-0.04,0.192-0.16c0.008-0.416-0.265-0.8-0.712-0.8      C153.335,138.338,152.976,138.674,152.855,139.322z" />
				<path d="M157.646,139.09c-0.159-0.48-0.432-0.792-0.822-0.792c-0.313,0-0.521,0.232-0.521,0.551      c0,0.352,0.319,0.536,0.672,0.688c0.607,0.248,1.015,0.536,1.015,1.087c0,0.728-0.679,1.104-1.318,1.104      c-0.408,0-0.775-0.152-0.912-0.272c-0.056-0.112-0.136-0.656-0.136-0.944l0.216-0.04c0.137,0.527,0.496,0.991,0.976,0.991      c0.296,0,0.567-0.216,0.567-0.56c0-0.352-0.231-0.544-0.631-0.728c-0.48-0.216-1-0.488-1-1.096c0-0.56,0.48-1.039,1.215-1.039      c0.328,0,0.545,0.072,0.704,0.144c0.072,0.176,0.16,0.656,0.177,0.848L157.646,139.09z" />
				<path d="M160.542,139.09c-0.16-0.48-0.432-0.792-0.823-0.792c-0.312,0-0.521,0.232-0.521,0.551c0,0.352,0.32,0.536,0.672,0.688      c0.607,0.248,1.016,0.536,1.016,1.087c0,0.728-0.68,1.104-1.319,1.104c-0.407,0-0.775-0.152-0.911-0.272      c-0.057-0.112-0.137-0.656-0.137-0.944l0.217-0.04c0.136,0.527,0.496,0.991,0.975,0.991c0.297,0,0.568-0.216,0.568-0.56      c0-0.352-0.232-0.544-0.632-0.728c-0.479-0.216-0.999-0.488-0.999-1.096c0-0.56,0.479-1.039,1.215-1.039      c0.328,0,0.544,0.072,0.703,0.144c0.072,0.176,0.16,0.656,0.177,0.848L160.542,139.09z" />
				<path d="M161.384,141.632v-0.208c0.504-0.048,0.559-0.096,0.559-0.64v-1.647c0-0.496-0.023-0.536-0.503-0.607v-0.192      c0.407-0.063,0.792-0.167,1.136-0.312v2.758c0,0.544,0.056,0.592,0.567,0.64v0.208H161.384z M161.808,136.939      c0-0.24,0.191-0.416,0.407-0.416c0.224,0,0.399,0.176,0.399,0.416c0,0.216-0.176,0.408-0.407,0.408      C162,137.347,161.808,137.155,161.808,136.939z" />
				<path d="M165.791,141.632v-0.208c0.472-0.048,0.527-0.112,0.527-0.664v-1.335c0-0.552-0.191-0.912-0.727-0.912      c-0.32,0-0.633,0.2-0.872,0.408v1.879c0,0.544,0.048,0.576,0.52,0.624v0.208h-1.735v-0.208c0.544-0.056,0.584-0.096,0.584-0.624      v-1.647c0-0.512-0.048-0.544-0.479-0.624v-0.184c0.384-0.072,0.759-0.168,1.111-0.32v0.632c0.159-0.12,0.336-0.24,0.536-0.376      c0.224-0.144,0.432-0.24,0.663-0.24c0.64,0,1.031,0.448,1.031,1.215v1.543c0,0.544,0.048,0.576,0.512,0.624v0.208H165.791z" />
				<path d="M171.326,138.202c-0.072,0.128-0.231,0.336-0.359,0.408l-0.456-0.024c0.144,0.168,0.24,0.424,0.24,0.704      c0,0.864-0.72,1.279-1.399,1.279c-0.128,0-0.279-0.016-0.408-0.04c-0.104,0.072-0.239,0.224-0.239,0.336      c0,0.152,0.144,0.304,0.503,0.304c0.297,0,0.576-0.008,0.848-0.008c0.496,0,1.144,0.16,1.144,0.943      c0,0.808-0.927,1.583-1.991,1.583c-0.895,0-1.383-0.52-1.391-0.975c0-0.176,0.072-0.328,0.191-0.448      c0.16-0.16,0.473-0.408,0.664-0.56c-0.288-0.088-0.488-0.271-0.592-0.439c-0.072-0.112-0.096-0.256-0.088-0.336      c0.32-0.12,0.576-0.328,0.703-0.488c-0.359-0.152-0.703-0.528-0.703-1.071c0-0.904,0.815-1.327,1.432-1.327h0.008      c0.264,0,0.527,0.072,0.768,0.216c0.384-0.024,0.791-0.072,1.088-0.12L171.326,138.202z M168.816,141.888      c-0.209,0.176-0.368,0.4-0.368,0.624c0,0.44,0.464,0.768,1.056,0.768c0.76,0,1.15-0.392,1.15-0.887      c0-0.272-0.135-0.472-0.359-0.568c-0.199-0.08-0.432-0.104-0.783-0.104C169.143,141.72,168.959,141.768,168.816,141.888z       M168.679,139.242c0,0.624,0.313,1.071,0.752,1.071c0.352-0.008,0.664-0.32,0.664-0.952c0-0.624-0.297-1.071-0.76-1.071      C169,138.29,168.679,138.626,168.679,139.242z" />
				<path d="M173.952,138.138v-0.168c0-0.256,0.032-0.488,0.088-0.664s0.185-0.576,0.616-0.943c0.287-0.24,0.567-0.384,0.879-0.424      c0.271,0.016,0.504,0.12,0.632,0.272c0.071,0.088,0.08,0.184,0.04,0.28c-0.024,0.064-0.072,0.128-0.152,0.192      c-0.072,0.056-0.144,0.056-0.216-0.024c-0.151-0.152-0.384-0.296-0.647-0.296c-0.208,0-0.336,0.096-0.424,0.232      c-0.104,0.16-0.191,0.543-0.184,1.223v0.32h0.943c0.048,0.072,0.008,0.264-0.08,0.32h-0.863v2.295      c0,0.592,0.056,0.616,0.688,0.68v0.2h-1.887v-0.208c0.512-0.048,0.567-0.088,0.567-0.616v-2.351h-0.56l-0.032-0.088l0.216-0.232      H173.952z" />
				<path d="M179.222,139.825c0,1.288-0.943,1.903-1.735,1.903c-1.095,0-1.751-0.88-1.751-1.767c0-1.319,1.023-1.919,1.759-1.919      C178.486,138.042,179.222,138.842,179.222,139.825z M176.48,139.706c0,1.007,0.432,1.759,1.095,1.759      c0.495,0,0.903-0.368,0.903-1.463c0-0.927-0.375-1.695-1.087-1.695C176.912,138.306,176.48,138.802,176.48,139.706z" />
				<path d="M180.888,138.898c0.239-0.408,0.583-0.855,0.967-0.855c0.271,0,0.464,0.216,0.464,0.399c0,0.16-0.104,0.32-0.256,0.392      c-0.097,0.04-0.16,0.032-0.208-0.016c-0.12-0.112-0.216-0.16-0.344-0.16c-0.208,0-0.464,0.231-0.64,0.679v1.463      c0,0.528,0.04,0.576,0.655,0.624v0.208h-1.839v-0.208c0.496-0.048,0.552-0.096,0.552-0.624v-1.655      c0-0.527-0.031-0.56-0.496-0.615v-0.184c0.393-0.064,0.744-0.16,1.128-0.32v0.872H180.888z" />
				<path d="M148.171,147.722c0.128-0.056,0.232-0.08,0.328-0.08c0.855,0,1.575,0.735,1.575,1.687c0,1.167-0.944,1.999-2.007,1.999      c-0.328,0-0.736-0.08-1.176-0.288v-4.438c0-0.504-0.016-0.552-0.527-0.6v-0.184c0.375-0.048,0.863-0.168,1.159-0.28v2.462      L148.171,147.722z M147.524,150.305c0,0.12,0.017,0.2,0.048,0.28c0.057,0.152,0.288,0.439,0.703,0.439      c0.672,0,1.088-0.567,1.088-1.495c0-0.903-0.552-1.439-1.215-1.439c-0.225,0-0.48,0.072-0.624,0.152V150.305z" />
				<path d="M154.426,151.041c-0.176,0.024-0.399,0.072-0.616,0.128c-0.207,0.056-0.407,0.12-0.559,0.16l-0.049-0.048v-0.567      c-0.184,0.136-0.359,0.28-0.592,0.416c-0.231,0.136-0.399,0.2-0.615,0.2c-0.535,0-0.991-0.328-0.991-1.191v-1.567      c0-0.424-0.063-0.464-0.265-0.512l-0.223-0.048v-0.184c0.168-0.008,0.367-0.032,0.575-0.056      c0.216-0.032,0.439-0.064,0.567-0.088c-0.023,0.248-0.023,0.624-0.023,1.159v1.079c0,0.712,0.344,0.904,0.703,0.904      c0.288,0,0.592-0.12,0.863-0.384v-1.871c0-0.424-0.071-0.472-0.336-0.512l-0.287-0.048v-0.184      c0.216-0.008,0.487-0.032,0.719-0.064c0.225-0.024,0.416-0.056,0.536-0.08v2.67c0,0.4,0.064,0.448,0.376,0.472l0.216,0.008      V151.041z" />
				<path d="M155.996,148.498c0.24-0.408,0.584-0.855,0.968-0.855c0.272,0,0.464,0.216,0.464,0.399c0,0.16-0.104,0.32-0.256,0.392      c-0.096,0.04-0.16,0.032-0.208-0.016c-0.12-0.112-0.216-0.16-0.344-0.16c-0.208,0-0.464,0.232-0.64,0.68v1.463      c0,0.528,0.04,0.576,0.656,0.624v0.208h-1.84v-0.208c0.496-0.048,0.552-0.096,0.552-0.624v-1.655      c0-0.527-0.032-0.56-0.495-0.616v-0.184c0.391-0.064,0.743-0.16,1.127-0.32v0.872H155.996z" />
				<path d="M159.803,148.69c-0.159-0.48-0.432-0.792-0.823-0.792c-0.313,0-0.52,0.231-0.52,0.552c0,0.352,0.319,0.536,0.672,0.688      c0.607,0.248,1.015,0.536,1.015,1.087c0,0.728-0.68,1.103-1.319,1.103c-0.408,0-0.775-0.152-0.911-0.271      c-0.056-0.112-0.136-0.656-0.136-0.943l0.216-0.04c0.136,0.527,0.495,0.991,0.976,0.991c0.295,0,0.567-0.216,0.567-0.56      c0-0.352-0.231-0.544-0.632-0.728c-0.479-0.216-1-0.488-1-1.096c0-0.56,0.48-1.039,1.216-1.039c0.328,0,0.544,0.072,0.704,0.144      c0.072,0.176,0.16,0.656,0.176,0.848L159.803,148.69z" />
				<path d="M162.187,151.225c-0.135,0.072-0.256,0.104-0.335,0.104c-0.504,0-0.784-0.319-0.784-0.951v-2.319h-0.551l-0.033-0.088      l0.225-0.232h0.359v-0.576l0.52-0.536l0.112,0.016v1.095h0.903c0.08,0.088,0.057,0.256-0.048,0.32H161.7v2.047      c0,0.648,0.265,0.768,0.472,0.768c0.2,0,0.384-0.08,0.488-0.136l0.072,0.208L162.187,151.225z" />
			</g>
			<g>
				<path d="M128.334,184.991c-0.096,0-0.192,0-0.28-0.008c-0.607-0.032-0.936-0.208-1.295-0.728      c-0.279-0.392-0.567-0.888-0.808-1.279c-0.136-0.224-0.271-0.32-0.68-0.32h-0.256v1.271c0,0.68,0.072,0.728,0.704,0.775v0.224      h-2.096v-0.224c0.656-0.048,0.721-0.096,0.721-0.775v-3.214c0-0.679-0.064-0.704-0.688-0.759v-0.224h1.982      c0.584,0,0.976,0.072,1.271,0.272c0.328,0.208,0.535,0.568,0.535,1.047c0,0.688-0.432,1.111-1.016,1.375      c0.137,0.256,0.473,0.792,0.712,1.151c0.288,0.416,0.448,0.624,0.647,0.832c0.208,0.24,0.4,0.328,0.576,0.375L128.334,184.991z       M125.4,182.4c0.4,0,0.664-0.063,0.863-0.231c0.313-0.24,0.44-0.56,0.44-0.992c0-0.863-0.567-1.183-1.167-1.183      c-0.232,0-0.368,0.032-0.432,0.08c-0.064,0.04-0.089,0.128-0.089,0.352v1.975H125.4z" />
				<path d="M131.471,184.255c-0.504,0.624-1.056,0.768-1.304,0.768c-0.982,0-1.559-0.8-1.559-1.703c0-0.544,0.199-1.04,0.527-1.399      s0.76-0.583,1.168-0.583h0.008c0.664,0,1.199,0.6,1.199,1.215c0,0.16-0.032,0.224-0.184,0.256      c-0.129,0.024-1.136,0.104-2.096,0.136c0.009,1.087,0.641,1.535,1.199,1.535c0.328,0,0.625-0.128,0.92-0.4L131.471,184.255z       M129.273,182.616c0.447,0,0.895-0.008,1.359-0.024c0.144,0,0.191-0.04,0.191-0.16c0.008-0.416-0.264-0.8-0.712-0.8      C129.752,181.632,129.392,181.968,129.273,182.616z" />
				<path d="M134.064,182.384c-0.16-0.48-0.432-0.792-0.824-0.792c-0.312,0-0.52,0.232-0.52,0.551c0,0.352,0.32,0.536,0.672,0.688      c0.607,0.248,1.016,0.536,1.016,1.087c0,0.728-0.68,1.104-1.319,1.104c-0.408,0-0.776-0.152-0.911-0.272      c-0.057-0.112-0.137-0.656-0.137-0.944l0.216-0.04c0.136,0.527,0.496,0.991,0.976,0.991c0.296,0,0.568-0.216,0.568-0.56      c0-0.352-0.232-0.544-0.633-0.728c-0.479-0.216-0.999-0.488-0.999-1.096c0-0.56,0.479-1.039,1.216-1.039      c0.328,0,0.543,0.072,0.703,0.144c0.072,0.176,0.16,0.656,0.176,0.848L134.064,182.384z" />
				<path d="M134.905,184.927v-0.208c0.504-0.048,0.56-0.096,0.56-0.64v-1.647c0-0.496-0.023-0.536-0.504-0.607v-0.192      c0.408-0.063,0.792-0.167,1.136-0.312v2.758c0,0.544,0.056,0.592,0.567,0.64v0.208H134.905z M135.329,180.233      c0-0.24,0.192-0.416,0.407-0.416c0.225,0,0.4,0.176,0.4,0.416c0,0.216-0.176,0.408-0.408,0.408      C135.521,180.641,135.329,180.449,135.329,180.233z" />
				<path d="M140.927,184.719c-0.176,0.032-0.776,0.136-1.24,0.304v-0.52l-0.487,0.288c-0.319,0.184-0.536,0.232-0.624,0.232      c-0.639,0-1.479-0.584-1.479-1.703c0-1.111,0.967-1.983,2.055-1.983c0.111,0,0.352,0.024,0.535,0.096v-1.143      c0-0.52-0.039-0.544-0.615-0.584v-0.2c0.416-0.048,0.951-0.176,1.247-0.272v4.773c0,0.416,0.056,0.456,0.353,0.488l0.256,0.024      V184.719z M139.687,182.048c-0.191-0.28-0.527-0.408-0.823-0.408c-0.376,0-1.048,0.304-1.048,1.463      c0,0.951,0.584,1.415,1.104,1.415c0.28,0,0.576-0.128,0.768-0.272V182.048z" />
				<path d="M145.063,184.735c-0.176,0.024-0.399,0.072-0.616,0.128c-0.207,0.056-0.407,0.12-0.559,0.16l-0.049-0.048v-0.567      c-0.184,0.136-0.359,0.28-0.592,0.416c-0.231,0.136-0.399,0.2-0.615,0.2c-0.535,0-0.991-0.328-0.991-1.191v-1.567      c0-0.424-0.063-0.464-0.265-0.512l-0.223-0.048v-0.184c0.168-0.008,0.367-0.032,0.575-0.056      c0.216-0.032,0.439-0.064,0.567-0.088c-0.023,0.248-0.023,0.624-0.023,1.16v1.08c0,0.711,0.344,0.903,0.703,0.903      c0.288,0,0.592-0.12,0.863-0.384v-1.871c0-0.424-0.071-0.472-0.336-0.512l-0.287-0.048v-0.184      c0.216-0.008,0.487-0.032,0.719-0.064c0.225-0.024,0.416-0.056,0.536-0.08v2.671c0,0.399,0.064,0.448,0.376,0.472l0.216,0.008      V184.735z" />
				<path d="M147.975,185.023c-0.12,0-0.288-0.072-0.376-0.16c-0.104-0.104-0.151-0.216-0.191-0.352      c-0.32,0.216-0.703,0.512-0.943,0.512c-0.568,0-0.959-0.472-0.959-0.976c0-0.392,0.207-0.64,0.646-0.792      c0.48-0.16,1.064-0.376,1.24-0.52V182.6c0-0.584-0.272-0.903-0.68-0.903c-0.152,0-0.272,0.056-0.36,0.152      c-0.096,0.112-0.168,0.288-0.231,0.527c-0.04,0.128-0.12,0.184-0.232,0.184c-0.144,0-0.344-0.152-0.344-0.344      c0-0.112,0.096-0.208,0.248-0.32c0.216-0.16,0.744-0.464,1.199-0.56c0.24,0,0.48,0.072,0.656,0.216      c0.279,0.24,0.359,0.56,0.359,0.983v1.479c0,0.36,0.145,0.48,0.279,0.48c0.097,0,0.209-0.04,0.289-0.088l0.079,0.208      L147.975,185.023z M147.392,183.008c-0.168,0.088-0.553,0.256-0.721,0.336c-0.311,0.144-0.487,0.296-0.487,0.591      c0,0.408,0.32,0.608,0.567,0.608c0.209,0,0.488-0.136,0.641-0.288V183.008z" />
				<path d="M148.865,184.927v-0.208c0.504-0.048,0.576-0.096,0.576-0.624v-3.782c0-0.544-0.049-0.56-0.552-0.608v-0.192      c0.415-0.048,0.911-0.184,1.183-0.28v4.861c0,0.528,0.064,0.576,0.576,0.624v0.208H148.865z" />
				<path d="M154.671,181.465c0.145-0.088,0.297-0.128,0.393-0.128c0.887,0,1.415,0.728,1.415,1.511      c0,1.207-0.952,1.982-1.991,2.175c-0.24-0.008-0.447-0.088-0.552-0.144v1.047c0,0.607,0.056,0.656,0.672,0.704v0.216h-1.888      v-0.216c0.512-0.048,0.584-0.096,0.584-0.624v-3.614c0-0.52-0.031-0.536-0.527-0.6v-0.192c0.336-0.056,0.783-0.192,1.159-0.344      v0.631L154.671,181.465z M153.936,184.319c0.177,0.184,0.472,0.312,0.752,0.312c0.671,0,1.119-0.576,1.119-1.471      c0-0.863-0.495-1.343-1.071-1.343c-0.256,0-0.584,0.176-0.8,0.344V184.319z" />
				<path d="M158.144,182.192c0.24-0.408,0.584-0.855,0.968-0.855c0.272,0,0.464,0.216,0.464,0.399c0,0.16-0.104,0.32-0.256,0.392      c-0.096,0.04-0.16,0.032-0.208-0.016c-0.12-0.112-0.216-0.16-0.344-0.16c-0.208,0-0.464,0.231-0.64,0.679v1.463      c0,0.528,0.04,0.576,0.656,0.624v0.208h-1.84v-0.208c0.496-0.048,0.552-0.096,0.552-0.624v-1.655      c0-0.527-0.032-0.56-0.495-0.615v-0.184c0.391-0.064,0.743-0.16,1.127-0.32v0.872H158.144z" />
				<path d="M162.703,184.255c-0.503,0.624-1.055,0.768-1.303,0.768c-0.983,0-1.559-0.8-1.559-1.703c0-0.544,0.199-1.04,0.527-1.399      s0.76-0.583,1.167-0.583h0.009c0.663,0,1.199,0.6,1.199,1.215c0,0.16-0.032,0.224-0.185,0.256      c-0.128,0.024-1.136,0.104-2.095,0.136c0.008,1.087,0.64,1.535,1.199,1.535c0.328,0,0.624-0.128,0.92-0.4L162.703,184.255z       M160.504,182.616c0.448,0,0.896-0.008,1.359-0.024c0.144,0,0.192-0.04,0.192-0.16c0.008-0.416-0.265-0.8-0.713-0.8      C160.984,181.632,160.625,181.968,160.504,182.616z" />
				<path d="M167.119,184.719c-0.176,0.032-0.775,0.136-1.239,0.304v-0.52l-0.487,0.288c-0.32,0.184-0.536,0.232-0.624,0.232      c-0.64,0-1.479-0.584-1.479-1.703c0-1.111,0.968-1.983,2.055-1.983c0.112,0,0.352,0.024,0.536,0.096v-1.143      c0-0.52-0.04-0.544-0.616-0.584v-0.2c0.416-0.048,0.952-0.176,1.248-0.272v4.773c0,0.416,0.056,0.456,0.352,0.488l0.256,0.024      V184.719z M165.879,182.048c-0.192-0.28-0.528-0.408-0.823-0.408c-0.376,0-1.048,0.304-1.048,1.463      c0,0.951,0.583,1.415,1.104,1.415c0.28,0,0.575-0.128,0.768-0.272V182.048z" />
				<path d="M167.464,184.927v-0.208c0.504-0.048,0.561-0.096,0.561-0.64v-1.647c0-0.496-0.024-0.536-0.504-0.607v-0.192      c0.408-0.063,0.791-0.167,1.135-0.312v2.758c0,0.544,0.057,0.592,0.568,0.64v0.208H167.464z M167.888,180.233      c0-0.24,0.192-0.416,0.408-0.416c0.224,0,0.4,0.176,0.4,0.416c0,0.216-0.177,0.408-0.408,0.408      C168.081,180.641,167.888,180.449,167.888,180.233z" />
				<path d="M172.607,184.207c-0.352,0.464-0.879,0.816-1.352,0.816c-1.007,0-1.606-0.816-1.606-1.671      c0-0.616,0.272-1.151,0.808-1.559c0.416-0.32,0.896-0.456,1.191-0.456h0.008c0.328,0,0.592,0.104,0.72,0.216      c0.104,0.088,0.128,0.152,0.128,0.24c0,0.168-0.176,0.344-0.264,0.344c-0.049,0-0.088-0.024-0.152-0.088      c-0.24-0.224-0.52-0.328-0.808-0.328c-0.527,0-0.983,0.439-0.983,1.279c0,1.111,0.752,1.479,1.207,1.479      c0.344,0,0.6-0.096,0.968-0.44L172.607,184.207z" />
				<path d="M174.631,184.919c-0.136,0.072-0.256,0.104-0.336,0.104c-0.503,0-0.783-0.32-0.783-0.952v-2.319h-0.552l-0.032-0.088      l0.224-0.232h0.36v-0.576l0.52-0.536l0.112,0.016v1.095h0.903c0.08,0.088,0.056,0.256-0.048,0.32h-0.855v2.047      c0,0.647,0.264,0.768,0.472,0.768c0.2,0,0.384-0.08,0.487-0.136l0.072,0.208L174.631,184.919z" />
				<path d="M175.529,184.927v-0.208c0.504-0.048,0.559-0.096,0.559-0.64v-1.647c0-0.496-0.023-0.536-0.503-0.607v-0.192      c0.407-0.063,0.792-0.167,1.136-0.312v2.758c0,0.544,0.056,0.592,0.567,0.64v0.208H175.529z M175.953,180.233      c0-0.24,0.191-0.416,0.407-0.416c0.224,0,0.399,0.176,0.399,0.416c0,0.216-0.176,0.408-0.407,0.408      C176.144,180.641,175.953,180.449,175.953,180.233z" />
				<path d="M181.199,183.12c0,1.288-0.943,1.903-1.735,1.903c-1.095,0-1.751-0.88-1.751-1.767c0-1.319,1.023-1.919,1.759-1.919      C180.462,181.337,181.199,182.136,181.199,183.12z M178.457,183c0,1.007,0.432,1.759,1.095,1.759      c0.495,0,0.903-0.368,0.903-1.463c0-0.927-0.375-1.695-1.087-1.695C178.888,181.601,178.457,182.096,178.457,183z" />
				<path d="M183.919,184.927v-0.208c0.472-0.048,0.527-0.112,0.527-0.664v-1.335c0-0.552-0.191-0.912-0.727-0.912      c-0.32,0-0.633,0.2-0.872,0.408v1.879c0,0.544,0.048,0.576,0.52,0.624v0.208h-1.735v-0.208c0.544-0.056,0.584-0.096,0.584-0.624      v-1.647c0-0.512-0.048-0.544-0.479-0.624v-0.184c0.384-0.072,0.759-0.168,1.111-0.32v0.632c0.159-0.12,0.336-0.24,0.536-0.376      c0.224-0.144,0.432-0.24,0.663-0.24c0.64,0,1.031,0.448,1.031,1.215v1.543c0,0.544,0.048,0.576,0.512,0.624v0.208H183.919z" />
				<path d="M144.857,191.241c-0.399,0.056-0.471,0.152-0.631,0.592c-0.24,0.64-0.6,1.703-0.96,2.782h-0.231      c-0.32-0.863-0.648-1.647-0.976-2.486c-0.304,0.807-0.632,1.599-0.952,2.486h-0.223c-0.297-0.951-0.592-1.895-0.928-2.854      c-0.145-0.416-0.209-0.472-0.592-0.52v-0.208h1.654v0.208c-0.479,0.072-0.52,0.12-0.407,0.488      c0.192,0.607,0.392,1.239,0.592,1.855h0.016c0.296-0.768,0.592-1.583,0.928-2.511h0.208c0.296,0.832,0.623,1.679,0.959,2.542      h0.016c0.177-0.552,0.4-1.255,0.553-1.847c0.104-0.416,0.048-0.456-0.464-0.528v-0.208h1.438V191.241z" />
				<path d="M145.052,194.527v-0.208c0.504-0.048,0.56-0.096,0.56-0.64v-1.647c0-0.496-0.024-0.536-0.503-0.608v-0.191      c0.407-0.064,0.791-0.168,1.135-0.312v2.758c0,0.544,0.056,0.592,0.567,0.64v0.208H145.052z M145.476,189.833      c0-0.24,0.191-0.416,0.408-0.416c0.224,0,0.399,0.176,0.399,0.416c0,0.216-0.176,0.408-0.407,0.408      C145.667,190.241,145.476,190.049,145.476,189.833z" />
				<path d="M148.683,194.519c-0.136,0.072-0.256,0.104-0.336,0.104c-0.504,0-0.783-0.319-0.783-0.951v-2.319h-0.552l-0.032-0.088      l0.225-0.232h0.359v-0.576l0.52-0.536l0.111,0.016v1.095h0.904c0.08,0.088,0.056,0.256-0.048,0.32h-0.856v2.047      c0,0.648,0.265,0.768,0.473,0.768c0.199,0,0.384-0.08,0.487-0.136l0.072,0.208L148.683,194.519z" />
				<path d="M151.748,194.527v-0.208c0.463-0.048,0.527-0.096,0.527-0.616v-1.327c0-0.656-0.248-0.983-0.783-0.983      c-0.305,0-0.607,0.152-0.832,0.408v1.903c0,0.512,0.04,0.568,0.52,0.616v0.208h-1.703l0.008-0.208      c0.48-0.04,0.545-0.088,0.545-0.616v-3.814c0-0.503-0.017-0.536-0.545-0.583v-0.192c0.385-0.056,0.864-0.184,1.176-0.28v2.687      c0.288-0.288,0.712-0.583,1.144-0.583c0.647,0,1.104,0.408,1.104,1.367v1.399c0,0.528,0.063,0.576,0.527,0.616v0.208H151.748z" />
				<path d="M158.458,190.537c-0.136-0.504-0.352-1.056-1.047-1.056c-0.616,0-0.888,0.44-0.888,0.872      c0,0.584,0.384,0.864,1.015,1.184c0.633,0.328,1.384,0.695,1.384,1.599c0,0.839-0.712,1.511-1.774,1.511      c-0.328,0-0.592-0.064-0.784-0.12c-0.2-0.064-0.319-0.128-0.399-0.168c-0.057-0.168-0.16-0.855-0.217-1.239l0.24-0.056      c0.12,0.488,0.48,1.295,1.312,1.295c0.608,0,0.96-0.376,0.96-0.959c0-0.592-0.44-0.872-1.04-1.191      c-0.512-0.28-1.319-0.671-1.319-1.575c0-0.768,0.615-1.423,1.647-1.423c0.368,0,0.704,0.088,1.007,0.184      c0.032,0.28,0.072,0.6,0.137,1.104L158.458,190.537z" />
				<path d="M164.706,189.554c-0.544,0.064-0.647,0.136-0.952,0.847c-0.215,0.528-1.055,2.559-1.662,4.214h-0.248      c-0.536-1.463-1.191-3.198-1.655-4.357c-0.231-0.592-0.36-0.656-0.84-0.704v-0.224h1.959v0.224      c-0.567,0.056-0.592,0.12-0.464,0.472c0.2,0.568,0.783,2.119,1.328,3.494h0.016c0.399-1.007,1.008-2.567,1.264-3.366      c0.151-0.464,0.104-0.52-0.545-0.6v-0.224h1.8V189.554z" />
				<path d="M169.849,194.591c-0.096,0-0.191,0-0.279-0.008c-0.607-0.032-0.936-0.208-1.295-0.728      c-0.28-0.392-0.568-0.887-0.809-1.279c-0.135-0.224-0.271-0.319-0.679-0.319h-0.256v1.271c0,0.68,0.071,0.728,0.703,0.776v0.224      h-2.095v-0.224c0.656-0.048,0.72-0.096,0.72-0.776v-3.214c0-0.68-0.063-0.704-0.688-0.759v-0.224h1.983      c0.583,0,0.975,0.072,1.271,0.272c0.328,0.208,0.536,0.568,0.536,1.047c0,0.688-0.432,1.111-1.016,1.375      c0.136,0.256,0.472,0.792,0.711,1.151c0.289,0.416,0.448,0.624,0.648,0.832c0.207,0.24,0.399,0.328,0.576,0.375L169.849,194.591      z M166.916,192c0.399,0,0.664-0.064,0.863-0.232c0.313-0.24,0.439-0.56,0.439-0.992c0-0.863-0.567-1.183-1.167-1.183      c-0.231,0-0.368,0.032-0.432,0.08c-0.063,0.04-0.088,0.128-0.088,0.352V192H166.916z" />
			</g>
			<g>
				<path d="M23.993,140.435c0.568,0,1.031,0.096,1.351,0.328c0.312,0.24,0.512,0.607,0.512,1.127c0,1.039-0.775,1.543-1.559,1.639      c-0.12,0.016-0.272,0.016-0.36,0.008l-0.592-0.152v1.255c0,0.68,0.072,0.72,0.792,0.768v0.224H21.97v-0.224      c0.64-0.048,0.704-0.112,0.704-0.775v-3.198c0-0.704-0.064-0.735-0.656-0.775v-0.224H23.993z M23.345,143.122      c0.104,0.04,0.32,0.096,0.584,0.096c0.52,0,1.159-0.28,1.159-1.295c0-0.864-0.552-1.231-1.207-1.231      c-0.224,0-0.392,0.04-0.448,0.096c-0.064,0.048-0.088,0.144-0.088,0.375V143.122z" />
				<path d="M29.056,144.961c-0.503,0.624-1.055,0.768-1.303,0.768c-0.983,0-1.559-0.8-1.559-1.703c0-0.544,0.2-1.04,0.528-1.399      c0.328-0.36,0.759-0.583,1.167-0.583h0.008c0.664,0,1.199,0.6,1.199,1.215c0,0.16-0.032,0.224-0.184,0.256      c-0.128,0.024-1.135,0.104-2.095,0.136c0.008,1.087,0.64,1.535,1.199,1.535c0.328,0,0.624-0.128,0.92-0.4L29.056,144.961z       M26.857,143.322c0.448,0,0.896-0.008,1.359-0.024c0.144,0,0.192-0.04,0.192-0.16c0.008-0.416-0.264-0.8-0.712-0.8      C27.337,142.338,26.978,142.674,26.857,143.322z" />
				<path d="M30.761,142.898c0.24-0.408,0.583-0.855,0.967-0.855c0.272,0,0.464,0.216,0.464,0.399c0,0.16-0.104,0.32-0.256,0.392      c-0.096,0.04-0.16,0.032-0.208-0.016c-0.12-0.112-0.216-0.16-0.344-0.16c-0.208,0-0.464,0.231-0.64,0.679v1.463      c0,0.528,0.04,0.576,0.656,0.624v0.208h-1.839v-0.208c0.496-0.048,0.552-0.096,0.552-0.624v-1.655      c0-0.527-0.032-0.56-0.496-0.615v-0.184c0.392-0.064,0.744-0.16,1.127-0.32v0.872H30.761z" />
				<path d="M32.569,145.632v-0.208c0.504-0.048,0.56-0.096,0.56-0.64v-1.647c0-0.496-0.024-0.536-0.503-0.607v-0.192      c0.408-0.063,0.792-0.167,1.135-0.312v2.758c0,0.544,0.056,0.592,0.567,0.64v0.208H32.569z M32.993,140.939      c0-0.24,0.192-0.416,0.408-0.416c0.224,0,0.4,0.176,0.4,0.416c0,0.216-0.176,0.408-0.408,0.408      C33.185,141.347,32.993,141.155,32.993,140.939z" />
				<path d="M38.239,143.825c0,1.288-0.943,1.903-1.735,1.903c-1.095,0-1.751-0.88-1.751-1.767c0-1.319,1.023-1.919,1.759-1.919      C37.504,142.042,38.239,142.842,38.239,143.825z M35.497,143.706c0,1.007,0.432,1.759,1.095,1.759      c0.496,0,0.904-0.368,0.904-1.463c0-0.927-0.376-1.695-1.088-1.695C35.929,142.306,35.497,142.802,35.497,143.706z" />
				<path d="M42.743,145.424c-0.176,0.032-0.775,0.136-1.239,0.304v-0.52l-0.488,0.288c-0.32,0.184-0.536,0.232-0.624,0.232      c-0.64,0-1.479-0.584-1.479-1.703c0-1.111,0.968-1.983,2.055-1.983c0.112,0,0.352,0.024,0.536,0.096v-1.143      c0-0.52-0.04-0.544-0.616-0.584v-0.2c0.416-0.048,0.952-0.176,1.247-0.272v4.773c0,0.416,0.056,0.456,0.352,0.488l0.256,0.024      V145.424z M41.504,142.754c-0.192-0.28-0.528-0.408-0.824-0.408c-0.375,0-1.047,0.304-1.047,1.463      c0,0.951,0.583,1.415,1.104,1.415c0.28,0,0.576-0.128,0.768-0.272V142.754z" />
				<path d="M43.089,145.632v-0.208c0.504-0.048,0.56-0.096,0.56-0.64v-1.647c0-0.496-0.024-0.536-0.503-0.607v-0.192      c0.408-0.063,0.792-0.167,1.135-0.312v2.758c0,0.544,0.056,0.592,0.568,0.64v0.208H43.089z M43.513,140.939      c0-0.24,0.192-0.416,0.408-0.416c0.224,0,0.4,0.176,0.4,0.416c0,0.216-0.176,0.408-0.408,0.408      C43.705,141.347,43.513,141.155,43.513,140.939z" />
				<path d="M48.232,144.913c-0.352,0.464-0.88,0.816-1.352,0.816c-1.007,0-1.607-0.816-1.607-1.671      c0-0.616,0.272-1.151,0.808-1.559c0.416-0.32,0.896-0.456,1.191-0.456h0.008c0.328,0,0.592,0.104,0.72,0.216      c0.104,0.088,0.128,0.152,0.128,0.24c0,0.168-0.176,0.344-0.264,0.344c-0.048,0-0.088-0.024-0.152-0.088      c-0.24-0.224-0.52-0.328-0.808-0.328c-0.527,0-0.983,0.439-0.983,1.279c0,1.111,0.752,1.479,1.208,1.479      c0.344,0,0.6-0.096,0.967-0.44L48.232,144.913z" />
				<path d="M52.016,145.625c-0.136,0.072-0.256,0.104-0.335,0.104c-0.504,0-0.784-0.32-0.784-0.952v-2.319h-0.552l-0.032-0.088      l0.224-0.232h0.36v-0.576l0.52-0.536l0.112,0.016v1.095h0.904c0.08,0.088,0.056,0.256-0.048,0.32h-0.855v2.047      c0,0.647,0.264,0.768,0.472,0.768c0.2,0,0.384-0.08,0.488-0.136l0.072,0.208L52.016,145.625z" />
				<path d="M54.121,142.898c0.24-0.408,0.583-0.855,0.967-0.855c0.272,0,0.464,0.216,0.464,0.399c0,0.16-0.104,0.32-0.256,0.392      c-0.096,0.04-0.16,0.032-0.208-0.016c-0.12-0.112-0.216-0.16-0.344-0.16c-0.208,0-0.464,0.231-0.64,0.679v1.463      c0,0.528,0.04,0.576,0.656,0.624v0.208h-1.839v-0.208c0.496-0.048,0.552-0.096,0.552-0.624v-1.655      c0-0.527-0.032-0.56-0.496-0.615v-0.184c0.392-0.064,0.744-0.16,1.127-0.32v0.872H54.121z" />
				<path d="M58.679,144.961c-0.503,0.624-1.055,0.768-1.303,0.768c-0.983,0-1.559-0.8-1.559-1.703c0-0.544,0.2-1.04,0.528-1.399      c0.328-0.36,0.759-0.583,1.167-0.583h0.008c0.664,0,1.199,0.6,1.199,1.215c0,0.16-0.032,0.224-0.184,0.256      c-0.128,0.024-1.135,0.104-2.095,0.136c0.008,1.087,0.64,1.535,1.199,1.535c0.328,0,0.624-0.128,0.92-0.4L58.679,144.961z       M56.48,143.322c0.448,0,0.896-0.008,1.359-0.024c0.144,0,0.192-0.04,0.192-0.16c0.008-0.416-0.264-0.8-0.712-0.8      C56.96,142.338,56.601,142.674,56.48,143.322z" />
				<path d="M61.439,145.632v-0.208c0.472-0.048,0.528-0.112,0.528-0.664v-1.335c0-0.552-0.192-0.912-0.728-0.912      c-0.32,0-0.632,0.2-0.872,0.408v1.879c0,0.544,0.048,0.576,0.52,0.624v0.208h-1.735v-0.208c0.543-0.056,0.583-0.096,0.583-0.624      v-1.647c0-0.512-0.048-0.544-0.479-0.624v-0.184c0.384-0.072,0.759-0.168,1.111-0.32v0.632c0.16-0.12,0.336-0.24,0.536-0.376      c0.224-0.144,0.432-0.24,0.664-0.24c0.64,0,1.031,0.448,1.031,1.215v1.543c0,0.544,0.048,0.576,0.512,0.624v0.208H61.439z" />
				<path d="M67.399,145.424c-0.176,0.032-0.776,0.136-1.239,0.304v-0.52l-0.488,0.288c-0.32,0.184-0.536,0.232-0.624,0.232      c-0.64,0-1.479-0.584-1.479-1.703c0-1.111,0.968-1.983,2.055-1.983c0.112,0,0.352,0.024,0.536,0.096v-1.143      c0-0.52-0.04-0.544-0.616-0.584v-0.2c0.416-0.048,0.951-0.176,1.247-0.272v4.773c0,0.416,0.056,0.456,0.352,0.488l0.256,0.024      V145.424z M66.16,142.754c-0.192-0.28-0.528-0.408-0.824-0.408c-0.376,0-1.047,0.304-1.047,1.463      c0,0.951,0.583,1.415,1.104,1.415c0.28,0,0.576-0.128,0.768-0.272V142.754z" />
			</g>
			<g>
				<path d="M17.295,180.969c-0.08-0.384-0.16-0.583-0.248-0.711c-0.136-0.192-0.264-0.256-0.872-0.256h-0.56v3.942      c0,0.631,0.064,0.711,0.815,0.759v0.224h-2.287v-0.224c0.728-0.048,0.792-0.128,0.792-0.759v-3.942h-0.496      c-0.664,0-0.824,0.072-0.928,0.248c-0.096,0.136-0.16,0.368-0.256,0.719h-0.232c0.04-0.479,0.08-1,0.096-1.439h0.16      c0.112,0.184,0.216,0.2,0.44,0.2h3.158c0.216,0,0.28-0.048,0.4-0.2h0.168c0.008,0.368,0.04,0.951,0.088,1.415L17.295,180.969z" />
				<path d="M18.537,182.192c0.24-0.408,0.583-0.855,0.967-0.855c0.272,0,0.464,0.216,0.464,0.399c0,0.16-0.104,0.32-0.256,0.392      c-0.096,0.04-0.16,0.032-0.208-0.016c-0.12-0.112-0.216-0.16-0.344-0.16c-0.208,0-0.464,0.231-0.64,0.679v1.463      c0,0.528,0.04,0.576,0.656,0.624v0.208h-1.839v-0.208c0.496-0.048,0.552-0.096,0.552-0.624v-1.655      c0-0.527-0.032-0.56-0.496-0.615v-0.184c0.392-0.064,0.744-0.16,1.127-0.32v0.872H18.537z" />
				<path d="M23.096,184.255c-0.504,0.624-1.055,0.768-1.303,0.768c-0.983,0-1.559-0.8-1.559-1.703c0-0.544,0.2-1.04,0.528-1.399      c0.328-0.36,0.759-0.583,1.167-0.583h0.008c0.664,0,1.199,0.6,1.199,1.215c0,0.16-0.032,0.224-0.184,0.256      c-0.128,0.024-1.135,0.104-2.095,0.136c0.008,1.087,0.64,1.535,1.199,1.535c0.328,0,0.624-0.128,0.919-0.4L23.096,184.255z       M20.897,182.616c0.448,0,0.896-0.008,1.359-0.024c0.144,0,0.192-0.04,0.192-0.16c0.008-0.416-0.264-0.8-0.712-0.8      C21.377,181.632,21.017,181.968,20.897,182.616z" />
				<path d="M25.856,184.927v-0.208c0.472-0.048,0.528-0.112,0.528-0.664v-1.335c0-0.552-0.192-0.912-0.728-0.912      c-0.32,0-0.632,0.2-0.872,0.408v1.879c0,0.544,0.048,0.576,0.52,0.624v0.208H23.57v-0.208c0.543-0.056,0.583-0.096,0.583-0.624      v-1.647c0-0.512-0.048-0.544-0.479-0.624v-0.184c0.384-0.072,0.759-0.168,1.111-0.32v0.632c0.16-0.12,0.336-0.24,0.536-0.376      c0.224-0.144,0.432-0.24,0.664-0.24c0.64,0,1.031,0.448,1.031,1.215v1.543c0,0.544,0.048,0.576,0.512,0.624v0.208H25.856z" />
				<path d="M31.815,184.719c-0.176,0.032-0.775,0.136-1.239,0.304v-0.52l-0.488,0.288c-0.32,0.184-0.536,0.232-0.624,0.232      c-0.64,0-1.479-0.584-1.479-1.703c0-1.111,0.968-1.983,2.055-1.983c0.112,0,0.352,0.024,0.536,0.096v-1.143      c0-0.52-0.04-0.544-0.616-0.584v-0.2c0.416-0.048,0.952-0.176,1.247-0.272v4.773c0,0.416,0.056,0.456,0.352,0.488l0.256,0.024      V184.719z M30.576,182.048c-0.192-0.28-0.528-0.408-0.824-0.408c-0.375,0-1.047,0.304-1.047,1.463      c0,0.951,0.583,1.415,1.104,1.415c0.28,0,0.576-0.128,0.768-0.272V182.048z" />
				<path d="M35.809,181.465c0.144-0.088,0.296-0.128,0.392-0.128c0.888,0,1.416,0.728,1.416,1.511c0,1.207-0.952,1.982-1.991,2.175      c-0.24-0.008-0.448-0.088-0.552-0.144v1.047c0,0.607,0.056,0.656,0.672,0.704v0.216h-1.887v-0.216      c0.512-0.048,0.584-0.096,0.584-0.624v-3.614c0-0.52-0.032-0.536-0.528-0.6v-0.192c0.336-0.056,0.784-0.192,1.159-0.344v0.631      L35.809,181.465z M35.073,184.319c0.176,0.184,0.472,0.312,0.752,0.312c0.671,0,1.119-0.576,1.119-1.471      c0-0.863-0.496-1.343-1.071-1.343c-0.256,0-0.583,0.176-0.8,0.344V184.319z" />
				<path d="M39.281,182.192c0.24-0.408,0.583-0.855,0.967-0.855c0.272,0,0.464,0.216,0.464,0.399c0,0.16-0.104,0.32-0.256,0.392      c-0.096,0.04-0.16,0.032-0.208-0.016c-0.12-0.112-0.216-0.16-0.344-0.16c-0.208,0-0.464,0.231-0.64,0.679v1.463      c0,0.528,0.04,0.576,0.656,0.624v0.208h-1.839v-0.208c0.496-0.048,0.552-0.096,0.552-0.624v-1.655      c0-0.527-0.032-0.56-0.496-0.615v-0.184c0.392-0.064,0.744-0.16,1.127-0.32v0.872H39.281z" />
				<path d="M43.84,184.255c-0.504,0.624-1.055,0.768-1.303,0.768c-0.983,0-1.559-0.8-1.559-1.703c0-0.544,0.2-1.04,0.528-1.399      c0.328-0.36,0.759-0.583,1.167-0.583h0.008c0.664,0,1.199,0.6,1.199,1.215c0,0.16-0.032,0.224-0.184,0.256      c-0.128,0.024-1.135,0.104-2.095,0.136c0.008,1.087,0.64,1.535,1.199,1.535c0.328,0,0.624-0.128,0.919-0.4L43.84,184.255z       M41.641,182.616c0.448,0,0.896-0.008,1.359-0.024c0.144,0,0.192-0.04,0.192-0.16c0.008-0.416-0.264-0.8-0.712-0.8      C42.121,181.632,41.761,181.968,41.641,182.616z" />
				<path d="M48.255,184.719c-0.176,0.032-0.775,0.136-1.239,0.304v-0.52l-0.488,0.288c-0.32,0.184-0.536,0.232-0.624,0.232      c-0.64,0-1.479-0.584-1.479-1.703c0-1.111,0.968-1.983,2.055-1.983c0.112,0,0.352,0.024,0.536,0.096v-1.143      c0-0.52-0.04-0.544-0.616-0.584v-0.2c0.416-0.048,0.952-0.176,1.247-0.272v4.773c0,0.416,0.056,0.456,0.352,0.488l0.256,0.024      V184.719z M47.016,182.048c-0.192-0.28-0.528-0.408-0.824-0.408c-0.375,0-1.047,0.304-1.047,1.463      c0,0.951,0.583,1.415,1.104,1.415c0.28,0,0.576-0.128,0.768-0.272V182.048z" />
				<path d="M48.602,184.927v-0.208c0.504-0.048,0.56-0.096,0.56-0.64v-1.647c0-0.496-0.024-0.536-0.503-0.607v-0.192      c0.408-0.063,0.792-0.167,1.135-0.312v2.758c0,0.544,0.056,0.592,0.567,0.64v0.208H48.602z M49.025,180.233      c0-0.24,0.192-0.416,0.408-0.416c0.224,0,0.4,0.176,0.4,0.416c0,0.216-0.176,0.408-0.408,0.408      C49.217,180.641,49.025,180.449,49.025,180.233z" />
				<path d="M53.744,184.207c-0.352,0.464-0.88,0.816-1.352,0.816c-1.007,0-1.607-0.816-1.607-1.671      c0-0.616,0.272-1.151,0.808-1.559c0.416-0.32,0.896-0.456,1.191-0.456h0.008c0.328,0,0.592,0.104,0.72,0.216      c0.104,0.088,0.128,0.152,0.128,0.24c0,0.168-0.176,0.344-0.264,0.344c-0.048,0-0.088-0.024-0.152-0.088      c-0.24-0.224-0.52-0.328-0.808-0.328c-0.527,0-0.983,0.439-0.983,1.279c0,1.111,0.752,1.479,1.208,1.479      c0.344,0,0.6-0.096,0.967-0.44L53.744,184.207z" />
				<path d="M55.768,184.919c-0.136,0.072-0.256,0.104-0.335,0.104c-0.504,0-0.784-0.32-0.784-0.952v-2.319h-0.552l-0.032-0.088      l0.224-0.232h0.36v-0.576l0.52-0.536l0.112,0.016v1.095h0.904c0.08,0.088,0.056,0.256-0.048,0.32H55.28v2.047      c0,0.647,0.264,0.768,0.472,0.768c0.2,0,0.384-0.08,0.488-0.136l0.072,0.208L55.768,184.919z" />
				<path d="M56.665,184.927v-0.208c0.504-0.048,0.56-0.096,0.56-0.64v-1.647c0-0.496-0.024-0.536-0.503-0.607v-0.192      c0.408-0.063,0.792-0.167,1.135-0.312v2.758c0,0.544,0.056,0.592,0.567,0.64v0.208H56.665z M57.089,180.233      c0-0.24,0.192-0.416,0.408-0.416c0.224,0,0.4,0.176,0.4,0.416c0,0.216-0.176,0.408-0.408,0.408      C57.281,180.641,57.089,180.449,57.089,180.233z" />
				<path d="M62.335,183.12c0,1.288-0.943,1.903-1.735,1.903c-1.095,0-1.751-0.88-1.751-1.767c0-1.319,1.023-1.919,1.759-1.919      C61.6,181.337,62.335,182.136,62.335,183.12z M59.593,183c0,1.007,0.432,1.759,1.095,1.759c0.496,0,0.904-0.368,0.904-1.463      c0-0.927-0.376-1.695-1.088-1.695C60.024,181.601,59.593,182.096,59.593,183z" />
				<path d="M65.056,184.927v-0.208c0.472-0.048,0.528-0.112,0.528-0.664v-1.335c0-0.552-0.192-0.912-0.728-0.912      c-0.32,0-0.632,0.2-0.872,0.408v1.879c0,0.544,0.048,0.576,0.52,0.624v0.208h-1.735v-0.208c0.543-0.056,0.583-0.096,0.583-0.624      v-1.647c0-0.512-0.048-0.544-0.479-0.624v-0.184c0.384-0.072,0.759-0.168,1.111-0.32v0.632c0.16-0.12,0.336-0.24,0.536-0.376      c0.224-0.144,0.432-0.24,0.664-0.24c0.64,0,1.031,0.448,1.031,1.215v1.543c0,0.544,0.048,0.576,0.512,0.624v0.208H65.056z" />
				<path d="M70.592,181.417c0.128-0.056,0.232-0.08,0.328-0.08c0.855,0,1.575,0.735,1.575,1.687c0,1.167-0.944,1.999-2.007,1.999      c-0.328,0-0.736-0.08-1.176-0.288v-4.438c0-0.504-0.016-0.552-0.527-0.6v-0.184c0.375-0.048,0.863-0.168,1.159-0.28v2.463      L70.592,181.417z M69.944,184c0,0.12,0.016,0.2,0.048,0.28c0.056,0.152,0.288,0.439,0.704,0.439      c0.672,0,1.087-0.567,1.087-1.495c0-0.903-0.552-1.439-1.215-1.439c-0.224,0-0.479,0.072-0.624,0.152V184z" />
				<path d="M76.487,181.641c-0.424,0.064-0.488,0.128-0.704,0.576c-0.208,0.424-0.456,1.087-1.007,2.407      c-0.536,1.279-0.711,1.735-0.824,2.159c-0.04,0.16-0.144,0.2-0.256,0.2c-0.224,0-0.448-0.192-0.448-0.384      c0-0.128,0.064-0.2,0.2-0.295c0.256-0.152,0.408-0.352,0.6-0.704c0.144-0.28,0.208-0.447,0.248-0.551      c0.04-0.12,0.032-0.224-0.016-0.36c-0.32-0.912-0.68-1.879-0.912-2.447c-0.176-0.44-0.248-0.543-0.688-0.6v-0.208h1.615      l0.008,0.208c-0.376,0.056-0.416,0.136-0.304,0.44l0.719,1.999c0.224-0.543,0.576-1.487,0.736-1.991      c0.096-0.296,0.048-0.392-0.416-0.448v-0.208h1.447V181.641z" />
				<path d="M12.568,193.855c-0.504,0.624-1.055,0.768-1.303,0.768c-0.983,0-1.559-0.799-1.559-1.703c0-0.544,0.2-1.04,0.528-1.399      c0.328-0.36,0.759-0.583,1.167-0.583h0.008c0.664,0,1.199,0.6,1.199,1.215c0,0.16-0.032,0.224-0.184,0.256      c-0.128,0.024-1.135,0.104-2.095,0.136c0.008,1.087,0.64,1.535,1.199,1.535c0.328,0,0.624-0.128,0.919-0.4L12.568,193.855z       M10.37,192.216c0.448,0,0.896-0.008,1.359-0.024c0.144,0,0.192-0.04,0.192-0.16c0.008-0.416-0.264-0.799-0.712-0.799      C10.85,191.233,10.49,191.568,10.37,192.216z" />
				<path d="M14.889,194.527v-0.208c0.336-0.04,0.408-0.104,0.272-0.32l-0.591-0.936c-0.176,0.264-0.36,0.56-0.512,0.848      c-0.16,0.272-0.136,0.344,0.271,0.408v0.208h-1.487v-0.208c0.496-0.064,0.584-0.128,0.896-0.527c0.224-0.28,0.44-0.6,0.68-0.96      l-0.695-1.087c-0.248-0.384-0.344-0.448-0.784-0.504v-0.208h1.591v0.208c-0.336,0.048-0.368,0.112-0.216,0.336l0.472,0.743      c0.16-0.24,0.32-0.487,0.463-0.751c0.144-0.248,0.088-0.288-0.264-0.328v-0.208h1.463v0.208      c-0.488,0.048-0.592,0.088-0.88,0.424c-0.168,0.208-0.359,0.488-0.624,0.879l0.776,1.183c0.295,0.456,0.399,0.528,0.879,0.592      v0.208H14.889z" />
				<path d="M18.425,194.519c-0.136,0.072-0.256,0.104-0.336,0.104c-0.503,0-0.783-0.319-0.783-0.951v-2.319h-0.552l-0.032-0.088      l0.224-0.232h0.36v-0.576l0.52-0.536l0.112,0.016v1.095h0.904c0.08,0.088,0.056,0.256-0.048,0.32h-0.856v2.047      c0,0.648,0.264,0.768,0.472,0.768c0.2,0,0.384-0.08,0.487-0.136l0.072,0.208L18.425,194.519z" />
				<path d="M20.529,191.792c0.24-0.408,0.583-0.855,0.967-0.855c0.272,0,0.464,0.216,0.464,0.399c0,0.16-0.104,0.32-0.256,0.392      c-0.096,0.04-0.16,0.032-0.208-0.016c-0.12-0.112-0.216-0.16-0.344-0.16c-0.208,0-0.464,0.232-0.64,0.68v1.463      c0,0.528,0.04,0.576,0.656,0.624v0.208H19.33v-0.208c0.496-0.048,0.552-0.096,0.552-0.624v-1.655      c0-0.527-0.032-0.56-0.496-0.616v-0.184c0.392-0.064,0.744-0.16,1.127-0.32v0.872H20.529z" />
				<path d="M25.088,193.855c-0.504,0.624-1.055,0.768-1.303,0.768c-0.983,0-1.559-0.799-1.559-1.703c0-0.544,0.2-1.04,0.528-1.399      c0.328-0.36,0.759-0.583,1.167-0.583h0.008c0.664,0,1.199,0.6,1.199,1.215c0,0.16-0.032,0.224-0.184,0.256      c-0.128,0.024-1.135,0.104-2.095,0.136c0.008,1.087,0.64,1.535,1.199,1.535c0.328,0,0.624-0.128,0.919-0.4L25.088,193.855z       M22.889,192.216c0.448,0,0.896-0.008,1.359-0.024c0.144,0,0.192-0.04,0.192-0.16c0.008-0.416-0.264-0.799-0.712-0.799      C23.369,191.233,23.009,191.568,22.889,192.216z" />
				<path d="M29.991,194.527v-0.208c0.472-0.048,0.56-0.08,0.56-0.647v-1.335c0-0.567-0.2-0.927-0.704-0.927      c-0.288,0-0.592,0.168-0.896,0.416c0.016,0.096,0.024,0.192,0.024,0.336v1.559c0,0.504,0.072,0.552,0.512,0.6v0.208h-1.711      v-0.208c0.496-0.048,0.567-0.088,0.567-0.616v-1.375c0-0.583-0.208-0.919-0.704-0.919c-0.312,0-0.631,0.216-0.872,0.416v1.879      c0,0.52,0.072,0.568,0.464,0.616v0.208h-1.687v-0.208c0.528-0.048,0.6-0.096,0.6-0.616v-1.655c0-0.512-0.024-0.552-0.488-0.624      v-0.184c0.352-0.064,0.752-0.168,1.111-0.328v0.648c0.168-0.112,0.336-0.256,0.584-0.4c0.208-0.128,0.4-0.224,0.647-0.224      c0.384,0,0.728,0.248,0.896,0.664c0.232-0.184,0.464-0.328,0.664-0.456c0.168-0.112,0.376-0.208,0.608-0.208      c0.616,0,1.016,0.439,1.016,1.223v1.543c0,0.536,0.056,0.568,0.52,0.616v0.208H29.991z" />
				<path d="M35.008,193.855c-0.504,0.624-1.055,0.768-1.303,0.768c-0.983,0-1.559-0.799-1.559-1.703c0-0.544,0.2-1.04,0.528-1.399      c0.328-0.36,0.759-0.583,1.167-0.583h0.008c0.664,0,1.199,0.6,1.199,1.215c0,0.16-0.032,0.224-0.184,0.256      c-0.128,0.024-1.135,0.104-2.095,0.136c0.008,1.087,0.64,1.535,1.199,1.535c0.328,0,0.624-0.128,0.919-0.4L35.008,193.855z       M32.809,192.216c0.448,0,0.896-0.008,1.359-0.024c0.144,0,0.192-0.04,0.192-0.16c0.008-0.416-0.264-0.799-0.712-0.799      C33.289,191.233,32.929,191.568,32.809,192.216z" />
				<path d="M40.224,193.855c-0.504,0.624-1.055,0.768-1.303,0.768c-0.983,0-1.559-0.799-1.559-1.703c0-0.544,0.2-1.04,0.528-1.399      c0.328-0.36,0.759-0.583,1.167-0.583h0.008c0.664,0,1.199,0.6,1.199,1.215c0,0.16-0.032,0.224-0.184,0.256      c-0.128,0.024-1.135,0.104-2.095,0.136c0.008,1.087,0.64,1.535,1.199,1.535c0.328,0,0.624-0.128,0.919-0.4L40.224,193.855z       M38.025,192.216c0.448,0,0.896-0.008,1.359-0.024c0.144,0,0.192-0.04,0.192-0.16c0.008-0.416-0.264-0.799-0.712-0.799      C38.505,191.233,38.145,191.568,38.025,192.216z" />
				<path d="M42.544,194.527v-0.208c0.335-0.04,0.408-0.104,0.271-0.32l-0.592-0.936c-0.176,0.264-0.359,0.56-0.512,0.848      c-0.16,0.272-0.136,0.344,0.272,0.408v0.208h-1.487v-0.208c0.496-0.064,0.583-0.128,0.896-0.527      c0.224-0.28,0.439-0.6,0.679-0.96l-0.695-1.087c-0.248-0.384-0.344-0.448-0.784-0.504v-0.208h1.591v0.208      c-0.336,0.048-0.368,0.112-0.216,0.336l0.472,0.743c0.16-0.24,0.32-0.487,0.463-0.751c0.144-0.248,0.088-0.288-0.264-0.328      v-0.208h1.463v0.208c-0.488,0.048-0.592,0.088-0.88,0.424c-0.167,0.208-0.36,0.488-0.624,0.879l0.775,1.183      c0.296,0.456,0.4,0.528,0.88,0.592v0.208H42.544z" />
				<path d="M46.08,194.519c-0.136,0.072-0.256,0.104-0.336,0.104c-0.503,0-0.783-0.319-0.783-0.951v-2.319h-0.552l-0.032-0.088      l0.224-0.232h0.36v-0.576l0.52-0.536l0.112,0.016v1.095h0.904c0.08,0.088,0.056,0.256-0.048,0.32h-0.856v2.047      c0,0.648,0.264,0.768,0.472,0.768c0.2,0,0.384-0.08,0.487-0.136l0.072,0.208L46.08,194.519z" />
				<path d="M48.184,191.792c0.24-0.408,0.583-0.855,0.967-0.855c0.272,0,0.464,0.216,0.464,0.399c0,0.16-0.104,0.32-0.256,0.392      c-0.096,0.04-0.16,0.032-0.208-0.016c-0.12-0.112-0.216-0.16-0.344-0.16c-0.208,0-0.464,0.232-0.64,0.68v1.463      c0,0.528,0.04,0.576,0.656,0.624v0.208h-1.839v-0.208c0.496-0.048,0.552-0.096,0.552-0.624v-1.655      c0-0.527-0.032-0.56-0.496-0.616v-0.184c0.392-0.064,0.744-0.16,1.127-0.32v0.872H48.184z" />
				<path d="M52.471,194.623c-0.12,0-0.288-0.072-0.375-0.16c-0.104-0.104-0.152-0.216-0.192-0.352      c-0.32,0.216-0.704,0.512-0.943,0.512c-0.568,0-0.959-0.472-0.959-0.975c0-0.392,0.208-0.64,0.647-0.792      c0.48-0.16,1.063-0.376,1.239-0.52V192.2c0-0.583-0.272-0.904-0.68-0.904c-0.152,0-0.272,0.056-0.36,0.152      c-0.096,0.112-0.168,0.288-0.231,0.527c-0.04,0.128-0.12,0.184-0.232,0.184c-0.144,0-0.344-0.152-0.344-0.344      c0-0.112,0.096-0.208,0.248-0.32c0.216-0.16,0.744-0.464,1.199-0.56c0.24,0,0.48,0.072,0.656,0.216      c0.28,0.24,0.36,0.56,0.36,0.983v1.479c0,0.36,0.144,0.48,0.28,0.48c0.096,0,0.208-0.04,0.288-0.088l0.08,0.208L52.471,194.623z       M51.887,192.608c-0.168,0.088-0.552,0.256-0.72,0.336c-0.312,0.144-0.488,0.296-0.488,0.592c0,0.408,0.32,0.607,0.568,0.607      c0.208,0,0.488-0.136,0.64-0.288V192.608z" />
				<path d="M55.136,191.065c0.144-0.088,0.296-0.128,0.392-0.128c0.888,0,1.416,0.728,1.416,1.511c0,1.208-0.952,1.983-1.991,2.175      c-0.24-0.008-0.448-0.088-0.552-0.144v1.047c0,0.607,0.056,0.656,0.672,0.704v0.216h-1.887v-0.216      c0.512-0.048,0.584-0.096,0.584-0.624v-3.614c0-0.52-0.032-0.536-0.528-0.6v-0.192c0.336-0.056,0.784-0.192,1.159-0.344v0.632      L55.136,191.065z M54.4,193.919c0.176,0.184,0.472,0.312,0.752,0.312c0.671,0,1.119-0.576,1.119-1.471      c0-0.863-0.496-1.343-1.071-1.343c-0.256,0-0.583,0.176-0.8,0.344V193.919z" />
				<path d="M61.094,192.72c0,1.288-0.943,1.903-1.735,1.903c-1.095,0-1.751-0.879-1.751-1.767c0-1.319,1.023-1.919,1.759-1.919      C60.359,190.937,61.094,191.736,61.094,192.72z M58.352,192.6c0,1.007,0.432,1.759,1.095,1.759c0.496,0,0.903-0.368,0.903-1.463      c0-0.928-0.375-1.695-1.087-1.695C58.784,191.201,58.352,191.696,58.352,192.6z" />
				<path d="M61.457,194.527v-0.208c0.503-0.048,0.576-0.096,0.576-0.624v-3.782c0-0.544-0.048-0.56-0.552-0.608v-0.192      c0.416-0.048,0.912-0.184,1.183-0.28v4.861c0,0.528,0.064,0.576,0.576,0.624v0.208H61.457z" />
				<path d="M66.167,194.623c-0.12,0-0.288-0.072-0.375-0.16c-0.104-0.104-0.152-0.216-0.192-0.352      c-0.32,0.216-0.704,0.512-0.943,0.512c-0.568,0-0.959-0.472-0.959-0.975c0-0.392,0.208-0.64,0.647-0.792      c0.48-0.16,1.063-0.376,1.239-0.52V192.2c0-0.583-0.272-0.904-0.68-0.904c-0.152,0-0.272,0.056-0.36,0.152      c-0.096,0.112-0.168,0.288-0.231,0.527c-0.04,0.128-0.12,0.184-0.232,0.184c-0.144,0-0.344-0.152-0.344-0.344      c0-0.112,0.096-0.208,0.248-0.32c0.216-0.16,0.744-0.464,1.199-0.56c0.24,0,0.48,0.072,0.656,0.216      c0.28,0.24,0.36,0.56,0.36,0.983v1.479c0,0.36,0.144,0.48,0.28,0.48c0.096,0,0.208-0.04,0.288-0.088l0.08,0.208L66.167,194.623z       M65.583,192.608c-0.168,0.088-0.552,0.256-0.72,0.336c-0.312,0.144-0.488,0.296-0.488,0.592c0,0.408,0.32,0.607,0.568,0.607      c0.208,0,0.488-0.136,0.64-0.288V192.608z" />
				<path d="M68.583,194.519c-0.136,0.072-0.256,0.104-0.336,0.104c-0.503,0-0.783-0.319-0.783-0.951v-2.319h-0.552l-0.032-0.088      l0.224-0.232h0.36v-0.576l0.52-0.536l0.112,0.016v1.095h0.904c0.08,0.088,0.056,0.256-0.048,0.32h-0.856v2.047      c0,0.648,0.264,0.768,0.472,0.768c0.2,0,0.384-0.08,0.487-0.136l0.072,0.208L68.583,194.519z" />
				<path d="M69.48,194.527v-0.208c0.504-0.048,0.56-0.096,0.56-0.64v-1.647c0-0.496-0.024-0.536-0.503-0.608v-0.191      c0.408-0.064,0.792-0.168,1.135-0.312v2.758c0,0.544,0.056,0.592,0.568,0.64v0.208H69.48z M69.904,189.833      c0-0.24,0.192-0.416,0.408-0.416c0.224,0,0.4,0.176,0.4,0.416c0,0.216-0.176,0.408-0.408,0.408      C70.096,190.241,69.904,190.049,69.904,189.833z" />
				<path d="M75.15,192.72c0,1.288-0.943,1.903-1.735,1.903c-1.095,0-1.751-0.879-1.751-1.767c0-1.319,1.023-1.919,1.759-1.919      C74.415,190.937,75.15,191.736,75.15,192.72z M72.408,192.6c0,1.007,0.432,1.759,1.095,1.759c0.496,0,0.903-0.368,0.903-1.463      c0-0.928-0.375-1.695-1.087-1.695C72.839,191.201,72.408,191.696,72.408,192.6z" />
				<path d="M77.871,194.527v-0.208c0.472-0.048,0.527-0.112,0.527-0.664v-1.335c0-0.551-0.191-0.911-0.727-0.911      c-0.32,0-0.632,0.2-0.872,0.408v1.879c0,0.543,0.048,0.576,0.52,0.624v0.208h-1.735v-0.208c0.543-0.056,0.583-0.096,0.583-0.624      v-1.647c0-0.512-0.048-0.544-0.479-0.624v-0.184c0.384-0.072,0.759-0.168,1.111-0.32v0.631c0.16-0.12,0.336-0.24,0.536-0.375      c0.224-0.144,0.432-0.24,0.664-0.24c0.64,0,1.031,0.448,1.031,1.215v1.543c0,0.543,0.048,0.576,0.512,0.624v0.208H77.871z" />
			</g>
			<g>
				<path d="M75.322,251.677c0.568,0,1.031,0.096,1.351,0.328c0.312,0.24,0.512,0.607,0.512,1.127c0,1.039-0.775,1.543-1.559,1.639      c-0.12,0.016-0.272,0.016-0.36,0.008l-0.592-0.152v1.255c0,0.68,0.072,0.72,0.792,0.768v0.224h-2.167v-0.224      c0.64-0.048,0.704-0.112,0.704-0.775v-3.198c0-0.704-0.064-0.735-0.656-0.775v-0.224H75.322z M74.674,254.364      c0.104,0.04,0.32,0.096,0.584,0.096c0.52,0,1.159-0.28,1.159-1.295c0-0.864-0.552-1.231-1.207-1.231      c-0.224,0-0.392,0.04-0.448,0.096c-0.064,0.048-0.088,0.144-0.088,0.375V254.364z" />
				<path d="M78.875,254.14c0.24-0.408,0.583-0.855,0.967-0.855c0.272,0,0.464,0.216,0.464,0.399c0,0.16-0.104,0.32-0.256,0.392      c-0.096,0.04-0.16,0.032-0.208-0.016c-0.12-0.112-0.216-0.16-0.344-0.16c-0.208,0-0.464,0.231-0.64,0.679v1.463      c0,0.528,0.04,0.576,0.656,0.624v0.208h-1.839v-0.208c0.496-0.048,0.552-0.096,0.552-0.624v-1.655      c0-0.527-0.032-0.56-0.496-0.615v-0.184c0.392-0.064,0.744-0.16,1.127-0.32v0.872H78.875z" />
				<path d="M83.433,256.203c-0.503,0.624-1.055,0.768-1.303,0.768c-0.983,0-1.559-0.8-1.559-1.703c0-0.544,0.2-1.04,0.528-1.399      c0.328-0.36,0.759-0.583,1.167-0.583h0.008c0.664,0,1.199,0.6,1.199,1.215c0,0.16-0.032,0.224-0.184,0.256      c-0.128,0.024-1.135,0.104-2.095,0.136c0.008,1.087,0.64,1.535,1.199,1.535c0.328,0,0.624-0.128,0.92-0.4L83.433,256.203z       M81.234,254.564c0.448,0,0.896-0.008,1.359-0.024c0.144,0,0.192-0.04,0.192-0.16c0.008-0.416-0.264-0.8-0.712-0.8      C81.714,253.58,81.354,253.916,81.234,254.564z" />
				<path d="M87.849,256.667c-0.176,0.032-0.775,0.136-1.239,0.304v-0.52l-0.488,0.288c-0.32,0.184-0.536,0.232-0.624,0.232      c-0.64,0-1.479-0.584-1.479-1.703c0-1.111,0.968-1.983,2.055-1.983c0.112,0,0.352,0.024,0.536,0.096v-1.143      c0-0.52-0.04-0.544-0.616-0.584v-0.2c0.416-0.048,0.952-0.176,1.247-0.272v4.773c0,0.416,0.056,0.456,0.352,0.488l0.256,0.024      V256.667z M86.609,253.996c-0.192-0.28-0.528-0.408-0.824-0.408c-0.375,0-1.047,0.304-1.047,1.463      c0,0.951,0.583,1.415,1.104,1.415c0.28,0,0.576-0.128,0.768-0.272V253.996z" />
				<path d="M88.195,256.875v-0.208c0.504-0.048,0.56-0.096,0.56-0.64v-1.647c0-0.496-0.024-0.536-0.503-0.607v-0.192      c0.408-0.063,0.792-0.167,1.135-0.312v2.758c0,0.544,0.056,0.592,0.568,0.64v0.208H88.195z M88.619,252.181      c0-0.24,0.192-0.416,0.408-0.416c0.224,0,0.4,0.176,0.4,0.416c0,0.216-0.176,0.408-0.408,0.408      C88.811,252.589,88.619,252.397,88.619,252.181z" />
				<path d="M93.337,256.155c-0.352,0.464-0.88,0.816-1.352,0.816c-1.007,0-1.607-0.816-1.607-1.671      c0-0.616,0.272-1.151,0.808-1.559c0.416-0.32,0.896-0.456,1.191-0.456h0.008c0.328,0,0.592,0.104,0.72,0.216      c0.104,0.088,0.128,0.152,0.128,0.24c0,0.168-0.176,0.344-0.264,0.344c-0.048,0-0.088-0.024-0.152-0.088      c-0.24-0.224-0.52-0.328-0.808-0.328c-0.527,0-0.983,0.439-0.983,1.279c0,1.111,0.752,1.479,1.208,1.479      c0.344,0,0.6-0.096,0.967-0.44L93.337,256.155z" />
				<path d="M95.361,256.867c-0.136,0.072-0.256,0.104-0.336,0.104c-0.503,0-0.783-0.32-0.783-0.952V253.7H93.69l-0.032-0.088      l0.224-0.232h0.36v-0.576l0.52-0.536l0.112,0.016v1.095h0.904c0.08,0.088,0.056,0.256-0.048,0.32h-0.856v2.047      c0,0.647,0.264,0.768,0.472,0.768c0.2,0,0.384-0.08,0.487-0.136l0.072,0.208L95.361,256.867z" />
				<path d="M96.258,256.875v-0.208c0.504-0.048,0.56-0.096,0.56-0.64v-1.647c0-0.496-0.024-0.536-0.503-0.607v-0.192      c0.408-0.063,0.792-0.167,1.135-0.312v2.758c0,0.544,0.056,0.592,0.567,0.64v0.208H96.258z M96.682,252.181      c0-0.24,0.192-0.416,0.408-0.416c0.224,0,0.4,0.176,0.4,0.416c0,0.216-0.176,0.408-0.408,0.408      C96.874,252.589,96.682,252.397,96.682,252.181z" />
				<path d="M101.928,255.067c0,1.288-0.943,1.903-1.735,1.903c-1.095,0-1.75-0.88-1.75-1.767c0-1.319,1.023-1.919,1.758-1.919      C101.193,253.285,101.928,254.084,101.928,255.067z M99.186,254.948c0,1.007,0.432,1.759,1.095,1.759      c0.496,0,0.904-0.368,0.904-1.463c0-0.927-0.376-1.695-1.088-1.695C99.618,253.548,99.186,254.044,99.186,254.948z" />
				<path d="M104.65,256.875v-0.208c0.471-0.048,0.527-0.112,0.527-0.664v-1.335c0-0.552-0.191-0.912-0.728-0.912      c-0.319,0-0.632,0.2-0.872,0.408v1.879c0,0.544,0.049,0.576,0.52,0.624v0.208h-1.734v-0.208      c0.543-0.056,0.584-0.096,0.584-0.624v-1.647c0-0.512-0.049-0.544-0.48-0.624v-0.184c0.385-0.072,0.76-0.168,1.111-0.32v0.632      c0.16-0.12,0.336-0.24,0.536-0.376c0.224-0.144,0.432-0.24,0.663-0.24c0.641,0,1.031,0.448,1.031,1.215v1.543      c0,0.544,0.049,0.576,0.512,0.624v0.208H104.65z" />
				<path d="M109.786,254.14c0.239-0.408,0.583-0.855,0.968-0.855c0.271,0,0.463,0.216,0.463,0.399c0,0.16-0.104,0.32-0.256,0.392      c-0.096,0.04-0.16,0.032-0.207-0.016c-0.121-0.112-0.217-0.16-0.344-0.16c-0.209,0-0.465,0.231-0.641,0.679v1.463      c0,0.528,0.041,0.576,0.656,0.624v0.208h-1.84v-0.208c0.496-0.048,0.553-0.096,0.553-0.624v-1.655      c0-0.527-0.032-0.56-0.496-0.615v-0.184c0.392-0.064,0.744-0.16,1.127-0.32v0.872H109.786z" />
				<path d="M114.345,256.203c-0.504,0.624-1.056,0.768-1.304,0.768c-0.983,0-1.56-0.8-1.56-1.703c0-0.544,0.2-1.04,0.528-1.399      c0.327-0.36,0.759-0.583,1.167-0.583h0.008c0.664,0,1.199,0.6,1.199,1.215c0,0.16-0.031,0.224-0.184,0.256      c-0.128,0.024-1.135,0.104-2.095,0.136c0.009,1.087,0.64,1.535,1.199,1.535c0.328,0,0.624-0.128,0.919-0.4L114.345,256.203z       M112.146,254.564c0.447,0,0.896-0.008,1.359-0.024c0.145,0,0.191-0.04,0.191-0.16c0.008-0.416-0.264-0.8-0.711-0.8      C112.626,253.58,112.266,253.916,112.146,254.564z" />
				<path d="M116.937,254.332c-0.16-0.48-0.432-0.792-0.823-0.792c-0.312,0-0.521,0.232-0.521,0.551c0,0.352,0.32,0.536,0.672,0.688      c0.607,0.248,1.016,0.536,1.016,1.087c0,0.728-0.68,1.104-1.318,1.104c-0.408,0-0.776-0.152-0.912-0.272      c-0.057-0.112-0.137-0.656-0.137-0.944l0.217-0.04c0.136,0.527,0.496,0.991,0.975,0.991c0.297,0,0.568-0.216,0.568-0.56      c0-0.352-0.232-0.544-0.632-0.728c-0.479-0.216-0.999-0.488-0.999-1.096c0-0.56,0.479-1.039,1.215-1.039      c0.328,0,0.544,0.072,0.703,0.144c0.072,0.176,0.16,0.656,0.177,0.848L116.937,254.332z" />
				<path d="M121.625,256.683c-0.176,0.024-0.4,0.072-0.616,0.128c-0.208,0.056-0.407,0.12-0.56,0.16l-0.048-0.048v-0.567      c-0.185,0.136-0.36,0.28-0.592,0.416s-0.399,0.2-0.616,0.2c-0.535,0-0.99-0.328-0.99-1.191v-1.567      c0-0.424-0.064-0.464-0.265-0.512l-0.224-0.048v-0.184c0.168-0.008,0.367-0.032,0.576-0.056      c0.215-0.032,0.439-0.064,0.566-0.088c-0.023,0.248-0.023,0.624-0.023,1.16v1.08c0,0.711,0.344,0.903,0.703,0.903      c0.289,0,0.592-0.12,0.864-0.384v-1.871c0-0.424-0.071-0.472-0.336-0.512l-0.288-0.048v-0.184      c0.217-0.008,0.488-0.032,0.72-0.064c0.224-0.024,0.416-0.056,0.536-0.08v2.671c0,0.399,0.064,0.448,0.375,0.472l0.217,0.008      V256.683z" />
				<path d="M121.89,256.875v-0.208c0.504-0.048,0.576-0.096,0.576-0.624v-3.782c0-0.544-0.049-0.56-0.552-0.608v-0.192      c0.415-0.048,0.911-0.184,1.183-0.28v4.861c0,0.528,0.064,0.576,0.576,0.624v0.208H121.89z" />
				<path d="M125.537,256.867c-0.135,0.072-0.256,0.104-0.336,0.104c-0.503,0-0.783-0.32-0.783-0.952V253.7h-0.551l-0.033-0.088      l0.225-0.232h0.359v-0.576l0.52-0.536l0.112,0.016v1.095h0.903c0.08,0.088,0.057,0.256-0.047,0.32h-0.856v2.047      c0,0.647,0.265,0.768,0.472,0.768c0.2,0,0.385-0.08,0.488-0.136l0.072,0.208L125.537,256.867z" />
			</g>
			
			
			
			
			
			
		</g></svg>